<svg xmlns="http://www.w3.org/2000/svg" width="732.721" height="353.787" viewBox="0 0 732.721 353.787">
  <g id="Group_29" data-name="Group 29" transform="translate(0 -122.179)">
    <g id="Group_13" data-name="Group 13" transform="translate(0 297.374)">
      <path id="Path_1808" data-name="Path 1808" d="M400.027,395.546c-8.814,1.588-16.543,3.842-23.723,7.689a38.231,38.231,0,0,0-16.481,17.43,29.428,29.428,0,0,0-3.08,13.416,12.154,12.154,0,0,1-1.9,6.685c-1.3,2.085-2.217,4.4-1.424,6.884a12.414,12.414,0,0,0,2.143,3.968,26.659,26.659,0,0,0,12.705,8.428,55.548,55.548,0,0,0,18.038,2.516,81.2,81.2,0,0,0,26.982-5.334c11.458-4.147,21.678-10.538,31.555-17.5,10.228-7.212,20.275-14.683,30.482-21.927,5.021-3.564,10.211-6.893,15.354-10.284,2.005-1.323,4.076-2.552,6.141-3.783,2.3-1.371,3.2-3.68,4.031-6.012.417-1.164-.245-2.1-.98-2.921a6.143,6.143,0,0,0-4.041-1.957,90.29,90.29,0,0,0-9.857-.707c-5.516.033-11.028.417-16.544.565-8.244.22-16.488.445-24.734.508-5.137.04-10.276-.253-15.415-.331C419.154,392.722,409.087,393.267,400.027,395.546Zm-25.634,28.791c-5.616,1.293-10.7,3.829-15.88,6.475-.214-1.868.22-3.118,1.815-3.956,2.413-1.27,4.756-2.673,7.131-4.019l-.162-.33-8.234,3.635c.79-1.812,1.434-3.312,2.095-4.8a36.033,36.033,0,0,1,12.674-14.928c5.253-3.691,11.265-5.887,17.415-7.477,11.843-3.062,23.864-5.015,36.165-4.667,5.261.147,10.526.4,15.786.345,11.033-.116,22.064-.383,33.1-.633,3.865-.089,7.73-.467,11.592-.426a60.323,60.323,0,0,1,8.307.871,3.8,3.8,0,0,1,3.345,2.641,7.582,7.582,0,0,0-.795,1.812,5.113,5.113,0,0,1-2.517,3.425,9.877,9.877,0,0,1-2.494,1.366c-4.321,1.462-8.618,3.027-13.017,4.213-5.644,1.524-11.38,2.7-17.067,4.064-2.966.712-5.944,1.4-8.863,2.275a143.1,143.1,0,0,0-22.736,9.176c-9.834,4.9-18.681,11.271-27.279,18.033-4.644,3.652-9.289,7.3-14.022,10.837a27.948,27.948,0,0,1-18.432,5.521c-6.126-.283-11.7-2.121-15.8-7.171-2.1-2.578-2.477-5.175-1-8.1a10.793,10.793,0,0,1,.634-1.172,12,12,0,0,0,1.976-6.472c.025-.692.1-1.383.152-2.148C363.247,429.106,369.09,427.215,374.392,424.337Zm113.117-17.049.116.262c-.344.257-.681.523-1.032.77-9.017,6.389-18.059,12.745-27.049,19.174-9.663,6.909-19.209,13.989-29.442,20.053-11.773,6.979-24.306,11.809-38.02,13.239a61.9,61.9,0,0,1-18.941-.966,12.762,12.762,0,0,1-1.36-.442,1.026,1.026,0,0,1,.749-.3c4.811-.036,9.565-.639,13.894-2.774a54.818,54.818,0,0,0,8.506-5.392c6.813-5.1,13.384-10.531,20.264-15.541a130.938,130.938,0,0,1,47.839-21.854c7.736-1.8,15.494-3.514,23.072-5.932A13.71,13.71,0,0,1,487.509,407.287Z" transform="translate(-353.126 -392.134)" fill="#ece1ca"/>
      <path id="Path_1809" data-name="Path 1809" d="M481.451,396.354c-4.2.631-8.408,1.232-12.6,1.9-5.457.873-10.932,1.658-16.347,2.739-7.287,1.454-14.544,3.077-21.777,4.778-4.135.972-8.221,2.168-12.288,3.4-3.758,1.139-7.472,2.424-11.183,3.713s-7.4,2.635-11.082,3.994c-5.7,2.108-11.424,4.173-17.079,6.4s-11.243,4.617-16.851,6.957a13.971,13.971,0,0,0-3.158,1.785c2.353-.808,4.731-1.547,7.052-2.439,7.742-2.978,15.445-6.06,23.2-9.011q9.41-3.585,18.907-6.944c3.822-1.35,7.742-2.423,11.586-3.715,11.781-3.96,23.954-6.275,36.114-8.628,6.424-1.242,12.891-2.256,19.333-3.408,2.062-.368,4.105-.846,6.157-1.274Z" transform="translate(-343.459 -389.365)" fill="#ece1ca"/>
      <path id="Path_1810" data-name="Path 1810" d="M393.624,412.124,425,401.717C422.552,401.024,397.521,409.218,393.624,412.124Z" transform="translate(-344.214 -385.873)" fill="#ece1ca"/>
    </g>
    <g id="Group_19" data-name="Group 19" transform="translate(222.756 167.448)">
      <g id="Group_14" data-name="Group 14" transform="translate(232.581 30.552)">
        <path id="Path_1811" data-name="Path 1811" d="M185.3,471.306c-.26-.45-.5-.914-.782-1.351a70.42,70.42,0,0,1-10.849-28.1,188.094,188.094,0,0,1-2.07-20.123q-.323-8.471-.813-16.935c-.691-11.593-3.527-22.556-9.734-32.5-1.532-2.456-2.979-4.968-4.562-7.391A125.794,125.794,0,0,1,141.8,334.7c-.247-.768-.611-1.5-1.055-2.569a4.812,4.812,0,0,0-.384,3.208c.068,1.51.26,3.016.3,4.528.308,11.785.454,23.577.924,35.357.434,10.884,2.994,21.377,6.643,31.613a149.052,149.052,0,0,0,8.956,20.419c5.99,11.178,11.785,22.471,18.545,33.209a109.976,109.976,0,0,0,7.587,9.787,8.756,8.756,0,0,0,1.714,1.3ZM142.024,340.322l.205-.086c.354.795.74,1.578,1.058,2.388a125.789,125.789,0,0,0,11.374,22.239c2.126,3.3,4.153,6.677,6.1,10.089a59.268,59.268,0,0,1,6.788,17.241,121.561,121.561,0,0,1,2.085,19.5c.2,4.339.293,8.683.517,13.02.111,2.131.394,4.253.624,6.374.393,3.614.807,7.224,1.211,10.836-10.359-28.2-18.036-57.2-25.8-86.174a18.792,18.792,0,0,0,.484,3.658c3.941,17.445,8.448,34.749,13.681,51.847,4.19,13.688,8.79,27.249,13.209,40.867.207.641.4,1.285.606,1.928a4.044,4.044,0,0,1-1.421-1.623q-7.035-12.89-14.06-25.785a141.039,141.039,0,0,1-8.777-19.828A107.264,107.264,0,0,1,143.2,376.67c-.4-6.743-.353-13.515-.532-20.272-.071-2.689-.21-5.374-.32-8.062Z" transform="translate(-140.263 -332.128)" fill="#ece1ca"/>
      </g>
      <g id="Group_15" data-name="Group 15" transform="translate(178.422 208.717)">
        <path id="Path_1812" data-name="Path 1812" d="M268.809,440.8a5.48,5.48,0,0,0-3.642-1.091c-10.76.111-21.519.247-32.275.474-12.992.275-25.424,2.817-36.911,9.224-4.452,2.484-9.094,4.622-13.577,7.05-7.212,3.908-14.908,4.7-22.877,3.695-11.669-1.472-22.672.27-32.739,6.608a61.636,61.636,0,0,0-10.847,8.911c-4.66,4.7-9.418,9.309-14.209,13.878-1.489,1.421-3.219,2.585-4.836,3.872-.614.489-1.53.76-1.348,2.133a12.655,12.655,0,0,0,2.292-.33q4.014-1.339,7.982-2.82a116.241,116.241,0,0,1,28.4-7.022c5.814-.629,11.7-.535,17.556-.84,5.573-.29,11.167-.437,16.7-1.078a62.392,62.392,0,0,0,20.423-6.33c7.822-3.852,15.024-8.7,22.314-13.426,6.651-4.311,13.338-8.58,20.176-12.581a77.2,77.2,0,0,1,29.887-9.622,60.551,60.551,0,0,1,7.419-.045Zm-29.071,3.829.123.363c-1.345.611-2.7,1.2-4.033,1.837-8.941,4.238-17.178,9.65-25.354,15.168-8.063,5.44-16.2,10.748-25.08,14.814a64.926,64.926,0,0,1-21.92,5.516c-4.8.393-9.643.321-14.464.537-5.3.235-10.635.268-15.892.909a115.159,115.159,0,0,0-29.688,7.744c-.547.224-1.115.4-2.115.747.475-.553.624-.758.8-.932,5.23-5.006,10.42-10.056,15.713-14.992a91.581,91.581,0,0,1,7.876-6.679c7.133-5.283,15.064-6.387,23.533-4,3.643,1.03,7.247,2.2,10.9,3.195,4.206,1.143,8.486,1.948,12.866,1.366a37.47,37.47,0,0,0,18.4-7.9c3.362-2.638,6.6-5.439,9.875-8.186a68.184,68.184,0,0,1,13.2-9.213,18.158,18.158,0,0,1,5.013-1.833,136.2,136.2,0,0,1,24.952-1.3,12.628,12.628,0,0,1,1.252.2c-1.731.328-3.019.537-4.291.816a103.39,103.39,0,0,0-33.133,13.467c-7.167,4.514-14.519,8.749-21.9,12.9-7.166,4.026-15.082,5.528-23.185,6.131-4.534.336-9.077.561-13.62.8a91.35,91.35,0,0,0-24.687,4.531c-3.506,1.192-6.946,2.578-10.417,3.877l.142.393c1.1-.343,2.236-.616,3.309-1.038,11.612-4.579,23.785-6.179,36.139-6.845,4.4-.237,8.805-.49,13.2-.835a50.745,50.745,0,0,0,17.824-4.9c8.058-3.812,15.584-8.562,23.1-13.3A107.817,107.817,0,0,1,237.2,445.236C238.036,445,238.892,444.832,239.738,444.631Zm-29.513.437.131.3a1.953,1.953,0,0,1-.381.442c-5.334,3.229-10,7.325-14.754,11.314a59.283,59.283,0,0,1-10.736,7.693,32.287,32.287,0,0,1-13.575,3.931c-5.119.209-9.94-1.2-14.764-2.643-5.117-1.532-10.18-3.362-15.7-3.161a15.96,15.96,0,0,1,2.906-.884c5.611-1.288,11.25-.727,16.872-.187,7.837.752,15.408.056,22.508-3.667,1.953-1.023,3.936-1.986,5.9-2.983,4.67-2.368,9.3-4.813,14.02-7.083C205.1,446.96,207.7,446.082,210.225,445.069Z" transform="translate(-95.525 -439.711)" fill="#ece1ca"/>
      </g>
      <g id="Group_16" data-name="Group 16" transform="translate(0 69.21)">
        <path id="Path_1813" data-name="Path 1813" d="M319.473,372.229l-16.5,3.41c-3.055-2.375-6.619-2.439-10.1-2.055a93.065,93.065,0,0,0-10.7,2.077c-1.288.3-2.684.767-3.271,2.252.1,1.438,1.239,1.837,2.284,2.006a18.243,18.243,0,0,0,5.324.374c4.481-.629,8.933-1.514,13.373-2.408a18.992,18.992,0,0,0,3.393-1.492c5.2-.735,10.928-1.33,16.268-3.6ZM300.509,375.9c-.192.233-.257.391-.358.422-5.872,1.742-11.8,3.132-18,2.512a8.042,8.042,0,0,1-1.721-.606C283.863,375.3,296.238,373.908,300.509,375.9Z" transform="translate(-271.521 -344.477)" fill="#ece1ca"/>
        <path id="Path_1814" data-name="Path 1814" d="M311.96,370.054c-2.665,0-5.329.007-7.994,0a12.714,12.714,0,0,1-5.752-1.119c-1.646-.793-3.741-.7-5.649-.9-2.666-.281-5.338-.594-8.014-.664a47.87,47.87,0,0,0-7.191.356,11.8,11.8,0,0,0-3.087,1.254,2.322,2.322,0,0,0,1.219,3.246,14.12,14.12,0,0,0,5.959,1.469,33.693,33.693,0,0,0,10.024-.974c2.534-.588,5.049-1.262,7.595-1.8a6.349,6.349,0,0,1,2.244.1C304.114,371.46,309.347,371.2,311.96,370.054Zm-15.468-.154-.045.475c-1.337.252-2.68.469-4.006.76-4.182.918-8.376,1.623-12.672.99-1.653-.243-3.372-.4-4.559-2.06.517-.325.886-.727,1.31-.8a24.581,24.581,0,0,1,4.885-.576c4.808.2,9.607.593,14.41.926A2.393,2.393,0,0,1,296.492,369.9Z" transform="translate(-255.893 -347.677)" fill="#ece1ca"/>
        <path id="Path_1815" data-name="Path 1815" d="M294.39,373.214c6.5,1.219,31.141-.01,34.233-1.977-1.119-.038-1.812-.129-2.492-.073-3.082.257-6.156.608-9.239.826-3.021.212-6.048.384-9.074.434-4.412.071-8.825.018-12.965.018-4.809-2.724-14.453-3.059-18.392-.785-.346,1.6-.174,2.227,1.4,2.524a45.963,45.963,0,0,0,7.755.85,32.555,32.555,0,0,0,6.123-.788A15.243,15.243,0,0,0,294.39,373.214Zm-17.114-.757c2.56-1.446,5.145-1.067,7.63-1.083,5.008-.035,6.223.286,7.172,1.459C287.153,374.479,280.391,374.378,277.276,372.457Z" transform="translate(-276.31 -345.839)" fill="#ece1ca"/>
        <path id="Path_1816" data-name="Path 1816" d="M310.615,372.813c-8.525-.923-16.829-2.583-24.843-6.048-.3-1.769-1.815-2.476-3.208-3.38-2.186-1.423-4.286-2.979-6.4-4.508-1.227-.886-2.4-1.84-3.623-2.736a3.038,3.038,0,0,0-2.933-.489,2.308,2.308,0,0,0-.593,2.993,11.3,11.3,0,0,0,2.458,3.468,30.054,30.054,0,0,0,9.834,5.109,2.29,2.29,0,0,0,1.005.182c2.159-.283,3.994.654,5.912,1.411a63.38,63.38,0,0,0,15.917,4.064A18.078,18.078,0,0,0,310.615,372.813ZM270.33,356.645c1.989.449,3.17,1.848,4.553,2.921,1.466,1.136,2.9,2.307,4.36,3.456,1.346,1.063,3.113,1.547,4.213,3.031a5.769,5.769,0,0,1-2.419-.381,53.5,53.5,0,0,1-6.142-2.882,24.8,24.8,0,0,1-4.112-3.372A2.074,2.074,0,0,1,270.33,356.645Z" transform="translate(-245.707 -355.471)" fill="#ece1ca"/>
        <path id="Path_1817" data-name="Path 1817" d="M298.2,377.09c2.769-1.277,6.046-1.613,8.747-3.549a7.964,7.964,0,0,0-1.3.156c-2.641.75-5.275,1.53-7.911,2.3a3.519,3.519,0,0,1-1.179.316c-2.393-.232-4.451.777-6.492,1.757a31.059,31.059,0,0,0-8.7,6.224,10.56,10.56,0,0,0-1.845,2.462c-.858,1.64-.209,2.787,1.61,2.741a10.411,10.411,0,0,0,3.575-.752,22.729,22.729,0,0,0,6.735-4.716c1.721-1.587,3.488-3.127,5.172-4.75A16.321,16.321,0,0,0,298.2,377.09Zm-17.7,11.455c1.063-4.256,10.887-10.864,15.43-10.76a3.173,3.173,0,0,1-.441.689c-2.042,1.837-4.024,3.753-6.174,5.455a47.817,47.817,0,0,1-5.636,3.754A13.76,13.76,0,0,1,280.508,388.545Z" transform="translate(-259.352 -343.616)" fill="#ece1ca"/>
      </g>
      <g id="Group_17" data-name="Group 17" transform="translate(41.035)">
        <path id="Path_1818" data-name="Path 1818" d="M103.054,498.047c-.563-.492-1.158-.956-1.688-1.482-10.92-10.832-22.778-20.446-36.316-27.86a164.408,164.408,0,0,0-38.888-14.877c-7.875-1.994-15.807-3.754-23.712-5.621-.936-.22-1.906-.556-2.489.83,3.877.868,7.7,1.7,11.506,2.578,12.154,2.794,24.218,5.894,35.881,10.4a143.519,143.519,0,0,1,44.722,27.772c3.274,2.956,6.4,6.073,9.6,9.112.445.422.921.813,1.381,1.219Z" transform="translate(365.876 -225.552)" fill="#ece1ca"/>
        <path id="Path_1819" data-name="Path 1819" d="M150.907,364.371c-.389-.421-.815-.835-1.187-1.29-11.879-14.562-27.117-23.634-45.4-27.612-8.6-1.87-16.995-1.254-24.974,2.779a17.664,17.664,0,0,0-6.152,5.117,12.623,12.623,0,0,0-1.643,13.618,31.726,31.726,0,0,0,7.762,10.627,165.153,165.153,0,0,1,11.882,11.808c6.015,6.691,13.694,10.281,22.48,11.69,1.419.227,2.847.4,4.75.666a16.558,16.558,0,0,1-1.838.649,116.713,116.713,0,0,0-22.12,6.7,51.423,51.423,0,0,0-17.52,11.508A23.581,23.581,0,0,0,69.985,425.1a19.323,19.323,0,0,0,4.521,14.633q.6.708,1.194,1.426a1.886,1.886,0,0,1,.126.394c-.389.406-.84.9-1.315,1.361A9.958,9.958,0,0,0,72.219,454.3a34.627,34.627,0,0,0,2.328,4.377,30.53,30.53,0,0,1,3.676,8.5A31.916,31.916,0,0,0,80,472.019c2.107,4.871,7.48,6.691,11.8,6.255a22.474,22.474,0,0,0,9.817-3.589Q112.2,468,122.8,461.326c.687-.432,1.4-.821,2.1-1.23l.308.293c-.55.735-1.076,1.489-1.654,2.2a49.5,49.5,0,0,0-8.555,14.549,6.458,6.458,0,0,1-2.638,3.085c-2.145,1.5-4.294,3.011-6.343,4.64a7.916,7.916,0,0,0-3.231,6.419,4.4,4.4,0,0,0,1.856,3.729,10.85,10.85,0,0,0,5.752,2.087,25.868,25.868,0,0,0,9.8-1.062,52.076,52.076,0,0,0,17.682-9.234c10.3-8.227,18.56-18.073,23.473-30.459.961-2.423,1.7-4.93,2.567-7.466.2.126.464.194.5.325,1.166,4.033,2.252,8.09,3.471,12.106a35.2,35.2,0,0,1,.661,17.17c-.532,2.771-1.038,5.556-1.355,8.358a15.755,15.755,0,0,0,2.376,10.286,9.731,9.731,0,0,0,11.649,3.782,16.888,16.888,0,0,0,5.192-2.9,37.821,37.821,0,0,0,13.538-24.179,30.673,30.673,0,0,0-9.2-26.981c-2.976-2.968-6.18-5.71-9.353-8.473a53.562,53.562,0,0,1-11.743-14.6,49.711,49.711,0,0,1-2.64-5.606c-1.8-4.5.22-8.506,5.6-8.825a74.815,74.815,0,0,1,11.985.121c6.848.7,13.689,1.6,20.467,2.792,14.829,2.608,29.074,6.987,42.056,14.867,9.223,5.6,17.1,12.8,24.424,20.646,8.33,8.93,16.521,17.992,24.957,26.818A194.219,194.219,0,0,0,328.1,501.54c13.677,9.243,28.668,15.589,44.383,20.366,13.389,4.072,27.032,7.158,40.645,10.36,3.074.724,6.162,1.386,9.3,2.092l.576-1.062a5.812,5.812,0,0,0-.969-.437c-8.92-2.092-17.852-4.122-26.759-6.265A312.052,312.052,0,0,1,359.43,516a154.377,154.377,0,0,1-48.952-29.95c-10.077-8.956-19.22-18.82-28.266-28.786-4.266-4.7-8.61-9.33-12.982-13.931a102.826,102.826,0,0,0-48.011-28.786A174.609,174.609,0,0,0,195.51,409.4c-6.088-.732-12.192-1.331-18.28-2.054a15.157,15.157,0,0,1-10.239-5.223,7.985,7.985,0,0,1-1.83-7.492A182.965,182.965,0,0,1,175,365.492c2.963-6.894,5.834-13.856,8.2-20.971a36.329,36.329,0,0,0,.669-21.8,19.878,19.878,0,0,0-2.651-5.773c-2.93-4.225-7.388-4.4-10.47-.3a32.89,32.89,0,0,0-4.1,7.6c-1.322,3.317-2.072,6.856-3.281,10.223A61.176,61.176,0,0,1,160.04,342c-1.972,3.787-4.208,7.439-6.2,11.217a21.29,21.29,0,0,0-2.532,10.13,3.978,3.978,0,0,1-.129.8C151.17,364.2,151.089,364.23,150.907,364.371ZM134.85,391.86c2.006.278,5.924.629,9.759,1.4a29.175,29.175,0,0,1,15.3,8.135,11,11,0,0,1,3.63,7c.089,1.237.177,2.474.28,3.71a28.655,28.655,0,0,1-4.922,18.629,56.221,56.221,0,0,1-10.8,12.2,108.016,108.016,0,0,1-15.133,10.829c-10.695,6.18-21.234,12.608-31.547,19.409a26.586,26.586,0,0,1-4.947,2.554,16.877,16.877,0,0,1-4.789,1.159c-5.641.411-9.413-1.812-11.164-7.168a63.415,63.415,0,0,0-6.623-14.855c-.073-.114-.109-.253-.174-.374a8.965,8.965,0,0,1,1.962-10.932c2.08-1.774,1.948-2.13.252-4.192-4.544-5.526-5.856-11.694-3.594-18.568,1.918-5.831,5.831-10.074,10.627-13.649,5.934-4.425,12.614-7.3,19.593-9.622A105.561,105.561,0,0,1,134.85,391.86Zm26.517,6.956a15.91,15.91,0,0,1-2.451-.772c-.987-.474-1.856-1.187-2.819-1.721-9.34-5.169-19.4-6.363-29.833-5.243a22.278,22.278,0,0,1-12.987-2.38,27.466,27.466,0,0,1-9.531-8.713,29.8,29.8,0,0,0-14.207-10.9,47.1,47.1,0,0,1-12.1-6.638,14.445,14.445,0,0,1-5.144-7.071,11.126,11.126,0,0,1,1.1-10.1,16.711,16.711,0,0,1,5.785-5.5c5.637-3.223,11.783-4.12,18.141-3.907a53.853,53.853,0,0,1,15.71,3.315,77.455,77.455,0,0,1,42.331,34.253,50.185,50.185,0,0,1,7.068,22.036A3.587,3.587,0,0,1,161.367,398.816Zm4.145,19.162c.222.475.434.956.664,1.429.99,2.044,1.891,4.139,3,6.116a57.9,57.9,0,0,0,13.992,16.185,88.2,88.2,0,0,1,6.709,6.144c5.344,5.457,8.691,11.927,9.011,19.659.5,12.007-4.551,21.63-13.3,29.47a15.3,15.3,0,0,1-5.01,2.782,8.423,8.423,0,0,1-9.63-2.878,13.979,13.979,0,0,1-2.511-9.191c.182-2.961,1.762-5.273,3.514-7.552,5.97-7.759,7.416-16.3,3.905-25.485a64.849,64.849,0,0,0-3.96-7.706c-1.221-2.236-2.694-4.344-3.806-6.629A31.962,31.962,0,0,1,165.512,417.978Zm-1.487-24.061-.394-.053c-.129-.595-.27-1.186-.386-1.782-.383-1.957-.676-3.935-1.148-5.869a50.578,50.578,0,0,0-6.278-14.555,3.544,3.544,0,0,1-.6-3.294c.82-2.254,1.38-4.62,2.386-6.782,1.365-2.931,3.031-5.722,4.6-8.555a37.765,37.765,0,0,0,4.243-11.377c.694-3.718,1.111-7.487,1.769-11.212.609-3.45,1.333-6.881,2.095-10.3a6.931,6.931,0,0,1,2.636-4.089,4.344,4.344,0,0,1,6.162.227,11.484,11.484,0,0,1,3.142,5.038,32.179,32.179,0,0,1,1.661,12.008,46.2,46.2,0,0,1-3.084,14.7c-2.241,5.632-4.516,11.251-6.908,16.821a161.2,161.2,0,0,0-8.34,23.319C165.09,390.087,164.547,392,164.025,393.917Zm-.979,47.225c.152.816.229,1.143.272,1.474.308,2.393-.376,4.652-1.007,6.9-4.541,16.177-14.5,28.438-27.854,38.153a44.574,44.574,0,0,1-18.835,8.077,14.151,14.151,0,0,1-9.267-1.141c-2.309-1.224-2.872-2.878-2.032-5.374a8.746,8.746,0,0,1,3.8-4.5c4.49-2.938,8.834-6.094,13.731-8.39,3.491-1.636,6.856-3.542,10.244-5.389,12.594-6.861,23.271-15.743,30.078-28.68A11.08,11.08,0,0,1,163.046,441.142Zm-47.182,36.669c.853-1.886,1.481-3.484,2.277-5a68.2,68.2,0,0,1,6.927-10.268,28.839,28.839,0,0,1,8.256-7.393,109.485,109.485,0,0,0,15.158-10.768A56.554,56.554,0,0,0,161.511,429c.194-.336.419-.654.85-1.323.08.85.154,1.3.157,1.742a57.337,57.337,0,0,0,.061,6.406,10.352,10.352,0,0,1-1.62,6.454,65.25,65.25,0,0,1-20.317,21.978c-7.482,5.233-15.751,9.084-23.74,13.426A4.6,4.6,0,0,1,115.865,477.811Zm47.877-46.233c1.308,6.293,4.306,11.752,7.787,17a32.688,32.688,0,0,1,1.928,3.42,25.352,25.352,0,0,1,3.1,11.253,25.07,25.07,0,0,1-5.338,16.158c-.472.6-.961,1.181-1.441,1.772l-.373-.225c.083-.6.189-1.194.245-1.8.316-3.35,1-6.724.821-10.049a43.541,43.541,0,0,0-1.954-9.885,112.162,112.162,0,0,1-4.761-23.611C163.656,434.277,163.742,432.924,163.742,431.578ZM113.16,389.664a3.491,3.491,0,0,1-.807.164c-7.727-1.671-14.575-4.991-19.909-10.962a130.767,130.767,0,0,0-12.276-12.242A20.485,20.485,0,0,1,78.71,365.1l.308-.353c3.958,3.113,8.668,4.718,13.158,6.767a25.385,25.385,0,0,1,9.68,7.868C104.926,383.389,108.134,387.245,113.16,389.664Zm40.958-21.117a5.515,5.515,0,0,1-2.045-5.28,35.743,35.743,0,0,1,.676-3.855,39.747,39.747,0,0,1,5.831-12.472,54.6,54.6,0,0,0,7.572-17.521c.321-1.386.863-2.719,1.3-4.077a1.258,1.258,0,0,1,.282,1.017c-.5,3.259-1.055,6.512-1.529,9.774a50.13,50.13,0,0,1-5.516,17.188C158.046,358.128,155.133,362.846,154.118,368.548Z" transform="translate(-69.897 -313.68)" fill="#ece1ca"/>
      </g>
      <g id="Group_18" data-name="Group 18" transform="translate(42.699 23.81)">
        <path id="Path_1820" data-name="Path 1820" d="M284.345,380.869c-1.151-7.37-.555-14.668.679-21.948s3.681-14.2,5.708-21.266a43.926,43.926,0,0,0-3.38,8.565c-.922,2.949-1.832,5.912-2.519,8.921a92.085,92.085,0,0,0-1.639,9.322c-.371,3.032-.442,6.1-.666,9.483-.391-.659-.639-1.045-.86-1.449A57.6,57.6,0,0,0,260.7,350.166,115.693,115.693,0,0,0,225.055,335.9a6.694,6.694,0,0,0-2.67-.1c.6.111,1.212.192,1.807.336,15,3.633,29.009,9.5,41.539,18.609a55.111,55.111,0,0,1,14.84,16.768,18.565,18.565,0,0,1,2.63,7.328,12.946,12.946,0,0,0,.6,2.092Z" transform="translate(-191.816 -323.04)" fill="#ece1ca"/>
        <path id="Path_1821" data-name="Path 1821" d="M227,433.974c.623-3.148,1.37-6.278,1.845-9.45,1.868-12.44-2.022-23.187-9.809-32.759-2.681-3.3-5.419-6.563-7.237-10.485a4.413,4.413,0,0,0,.916,3.226c1.871,2.8,3.686,5.662,5.8,8.279a45.711,45.711,0,0,1,9.511,21.239,33.562,33.562,0,0,1-.1,11.091c-.464,2.908-.888,5.821-1.33,8.733Z" transform="translate(-112.784 -293.138)" fill="#ece1ca"/>
        <path id="Path_1822" data-name="Path 1822" d="M266.042,382.058a23.353,23.353,0,0,0-3.463-11.41,63.47,63.47,0,0,0-15.768-17.354,85.145,85.145,0,0,0-17.5-10.508c-.692-.3-1.388-.6-2.087-.891a.769.769,0,0,0-.672.04c.551.282,1.095.578,1.654.843A90.736,90.736,0,0,1,250.869,357.8a61.172,61.172,0,0,1,10.463,12.493,27.421,27.421,0,0,1,4.158,10.036A12.314,12.314,0,0,0,266.042,382.058Z" transform="translate(-174.027 -319.017)" fill="#ece1ca"/>
        <path id="Path_1823" data-name="Path 1823" d="M263.782,370.2c-.258.972-.513,1.948-.775,2.92a51.9,51.9,0,0,1-11.669,21.163,112.746,112.746,0,0,1-23.48,19.513,5.086,5.086,0,0,0-1.558,1.4,6.192,6.192,0,0,0,.76-.348A130.338,130.338,0,0,0,246.6,400.266c5.753-5.344,10.8-11.223,14.133-18.43a47.817,47.817,0,0,0,3.474-10.985,2.119,2.119,0,0,0-.056-.6Z" transform="translate(-171.782 -300.41)" fill="#ece1ca"/>
        <path id="Path_1824" data-name="Path 1824" d="M240.529,384.831a115.356,115.356,0,0,1,27.458-13.558,102.6,102.6,0,0,1,29.885-5.359C277.282,364.584,251.143,375.512,240.529,384.831Z" transform="translate(-229.003 -303.292)" fill="#ece1ca"/>
        <path id="Path_1825" data-name="Path 1825" d="M226.914,397.69c2.251-1.123,4.541-2.173,6.74-3.385a113.274,113.274,0,0,0,18.894-12.583,32.629,32.629,0,0,0,7.313-8.64,6.418,6.418,0,0,0,1.119-4.1,5.205,5.205,0,0,0-.364-.924c-1.436,6.222-5.573,10.256-9.958,13.986-6.536,5.558-13.934,9.862-21.416,14.007-.823.455-1.656.891-2.484,1.335Z" transform="translate(-169.347 -301.815)" fill="#ece1ca"/>
        <path id="Path_1826" data-name="Path 1826" d="M258.124,399.62a56.015,56.015,0,0,1-12.914,15.118,113.09,113.09,0,0,1-16.98,10.894C238.082,423.87,256.721,407.692,258.124,399.62Z" transform="translate(-168.886 -281.106)" fill="#ece1ca"/>
        <path id="Path_1827" data-name="Path 1827" d="M292.993,345.447a107.978,107.978,0,0,0-27.4-6c-.245,1.081.333,1.134.9,1.222,3.387.528,6.792.962,10.152,1.618,5.172,1.007,10.314,2.17,15.471,3.259A4.784,4.784,0,0,0,292.993,345.447Z" transform="translate(-265.535 -320.582)" fill="#ece1ca"/>
        <path id="Path_1828" data-name="Path 1828" d="M287.609,386.933c-6.813,1.689-13.134,3.95-19.48,6.122-.194.066-.3.387-.719.956a9.551,9.551,0,0,0,2.287-.156c5.808-2.111,11.6-4.273,17.39-6.429C287.2,387.385,287.275,387.254,287.609,386.933Z" transform="translate(-263.257 -289.43)" fill="#ece1ca"/>
        <path id="Path_1829" data-name="Path 1829" d="M241.761,351.475c8.8,2.7,16.706,7.275,24.843,11.478-.922-.624-1.818-1.293-2.771-1.868-5.717-3.446-11.49-6.792-17.846-8.961-1.34-.459-2.721-.787-4.084-1.176Z" transform="translate(-199.775 -313.038)" fill="#ece1ca"/>
        <path id="Path_1830" data-name="Path 1830" d="M278.219,369.32a78.632,78.632,0,0,0-27.233,9.325A141.414,141.414,0,0,1,278.219,369.32Z" transform="translate(-226.667 -300.985)" fill="#ece1ca"/>
        <path id="Path_1831" data-name="Path 1831" d="M210.3,390.1c3.58,7.408,6.823,14.915,7.578,23.241C217.919,404.758,214.908,397.163,210.3,390.1Z" transform="translate(-98.936 -287.354)" fill="#ece1ca"/>
        <path id="Path_1832" data-name="Path 1832" d="M283.408,404.042l-15.6,6.166c.33.2.631.543.889.513a6.841,6.841,0,0,0,1.989-.508c4.077-1.827,8.138-3.691,12.2-5.554a3.327,3.327,0,0,0,.606-.464Z" transform="translate(-259.787 -278.205)" fill="#ece1ca"/>
        <path id="Path_1833" data-name="Path 1833" d="M246.034,404.792c6.859-3.105,13.489-6.6,19.363-11.387Z" transform="translate(-205.644 -285.183)" fill="#ece1ca"/>
        <path id="Path_1834" data-name="Path 1834" d="M234.631,386.174c4.938-1.593,13.62-6.853,16.165-9.87Z" transform="translate(-172.159 -296.403)" fill="#ece1ca"/>
        <path id="Path_1835" data-name="Path 1835" d="M282.553,330.591c-4.1-2.035-11.6-3.191-14.539-2.136,2.507.98,4.945.522,7.234,1.017C277.576,329.975,279.963,330.207,282.553,330.591Z" transform="translate(-259.201 -328.057)" fill="#ece1ca"/>
        <path id="Path_1836" data-name="Path 1836" d="M242.448,408.158l-9.349,8.05C236.2,415.284,241.747,410.518,242.448,408.158Z" transform="translate(-161.274 -275.504)" fill="#ece1ca"/>
        <path id="Path_1837" data-name="Path 1837" d="M285.151,390.967c-3.393,1.008-6.788,2.012-10.178,3.037-.147.045-.237.283-.6.75,4.086-.454,7.461-2,10.882-3.383Z" transform="translate(-272.434 -286.783)" fill="#ece1ca"/>
        <path id="Path_1838" data-name="Path 1838" d="M226.671,358.093q1.083-5.982,2.168-11.965C227.4,349.992,226.308,353.915,226.671,358.093Z" transform="translate(-136.904 -316.201)" fill="#ece1ca"/>
        <path id="Path_1839" data-name="Path 1839" d="M280.306,329.98c-2.252-.687-4.495-1.269-6.841-.757C275.671,330.212,278,330.109,280.306,329.98Z" transform="translate(-265.981 -327.419)" fill="#ece1ca"/>
      </g>
    </g>
    <g id="Group_23" data-name="Group 23" transform="translate(537.058 122.179)">
      <g id="Group_20" data-name="Group 20" transform="translate(64.316 165.748)">
        <path id="Path_1840" data-name="Path 1840" d="M118.314,386.429a14.231,14.231,0,0,0-1.283,1.4c-2.1,2.988-4.306,5.917-6.24,9.012-8.764,14.029-19.671,26.245-31.53,37.677-8.941,8.617-17.962,17.155-26.749,25.926-15.324,15.3-25.285,33.781-31.619,54.326-.845,2.737-1.254,5.611-1.863,8.421l.459.225A9.245,9.245,0,0,0,20.551,522a85.791,85.791,0,0,1,21.12-27.58,215.056,215.056,0,0,1,18.05-13.489c8.047-5.578,16.4-10.708,24.432-16.309,10.09-7.04,18.427-15.708,24.056-26.845a62.719,62.719,0,0,0,6.1-19.836q1.856-13.288,3.741-26.573c.144-1.017.465-2.009.646-3.022a13.924,13.924,0,0,0,.106-1.707ZM26.922,502.538c.242-.706.363-1.153.543-1.575a142.315,142.315,0,0,1,12.462-23.074,55.452,55.452,0,0,1,19.051-17.74c5.154-2.918,10.48-5.536,15.748-8.252a51.085,51.085,0,0,0,16.182-12.334A70.508,70.508,0,0,0,101.5,421.644c4.061-9.511,8.307-18.934,13.249-28.029.474-.871.989-1.721,1.486-2.58a2.007,2.007,0,0,1,.215,1.35c-.967,6.883-1.881,13.772-2.93,20.64a109.984,109.984,0,0,1-2.348,12.783,63.006,63.006,0,0,1-17.592,29A124.248,124.248,0,0,1,75.17,468.825c-7.394,4.823-14.731,9.734-22.054,14.663-10.869,7.313-20.361,16.042-27.584,27.078a8.053,8.053,0,0,1-.816.9c-.076-.245-.181-.394-.144-.492.19-.515.411-1.019.631-1.522a66.218,66.218,0,0,1,10.668-16.178,114.414,114.414,0,0,1,22.46-19.782,203.324,203.324,0,0,0,28.082-23.766,79.145,79.145,0,0,0,19.051-30.4c.654-1.885,1.211-3.8,1.812-5.707a20.088,20.088,0,0,0-2,4.307,78.744,78.744,0,0,1-18.1,29.324,202.3,202.3,0,0,1-28.7,24.632c-8.08,5.583-15.759,11.67-22.259,19.081C33.043,494.586,30.171,498.472,26.922,502.538Zm79.213-95.849.278.245c-3.017,6.648-5.871,13.376-9.115,19.909a70.5,70.5,0,0,1-6.368,10.137c-4.847,6.623-11.571,10.892-18.8,14.539-5.594,2.822-11.044,5.93-16.559,8.911-.278.151-.561.291-.843.436a5.339,5.339,0,0,1,1.4-1.976c6.8-6.56,13.567-13.159,20.428-19.656,10.437-9.88,20.385-20.193,28.925-31.792C105.685,407.176,105.918,406.939,106.135,406.689Z" transform="translate(-19.029 -386.429)" fill="#ece1ca"/>
      </g>
      <g id="Group_21" data-name="Group 21" transform="translate(0)">
        <path id="Path_1841" data-name="Path 1841" d="M81.295,640.131c-.444-7.5-.788-15.012-1.358-22.506-.482-6.32-1.214-12.623-1.853-18.931-.618-6.1-1.206-12.207-1.9-18.3a174.865,174.865,0,0,1-1.206-23.533c.171-8.252,1.7-16.3,3.562-24.293,2.559-11,5.228-21.976,7.719-32.994,2.857-12.643,3.643-25.494,3.615-38.421q-.027-12.418.108-24.839A44.158,44.158,0,0,1,93.7,418.638a12.957,12.957,0,0,1,8.83-7.525c5.515-1.471,11.119-2.622,16.609-4.182,14.925-4.24,28.9-10.539,41.114-20.237a85.016,85.016,0,0,0,25.533-32.833,22.1,22.1,0,0,0,2.257-9.787,8.067,8.067,0,0,0-.616-2.792,2.952,2.952,0,0,0-3.723-1.787,10.356,10.356,0,0,0-3.185,1.381,21.384,21.384,0,0,0-3.6,3.1,69.311,69.311,0,0,1-8.32,7.741c-1.729,1.35-3.261,2.954-5.172,4.346.248-.545.474-1.1.75-1.633a98.09,98.09,0,0,0,9.209-26.03,60.538,60.538,0,0,0,1.409-16.637,15.755,15.755,0,0,0-1.275-5.165,7.715,7.715,0,0,0-11.308-3.489,15.872,15.872,0,0,0-4,3.519c-1.691,2.078-3.11,4.382-4.611,6.613-1,1.487-1.924,3.027-2.913,4.523a28.164,28.164,0,0,1-8.252,8.307c-2.781,1.8-5.488,3.706-8.234,5.558-.273.184-.583.313-1.02.545a2.646,2.646,0,0,1-.131-.873,11.942,11.942,0,0,0-.551-7.111,36.8,36.8,0,0,0-7.066-12.518c-2.683-3.128-4.957-6.613-7.346-9.984-1.035-1.461-1.919-3.029-2.847-4.564a22.529,22.529,0,0,0-14.169-10.334,13.711,13.711,0,0,0-7.764.263,23.1,23.1,0,0,0-11.3,7.32,33.789,33.789,0,0,1-8.877,7.678,22.742,22.742,0,0,0-9.262,11.073,94.962,94.962,0,0,0-5.27,17.594c-.053.257-.128.508-.267,1.06-.26-.727-.46-1.163-.573-1.618A35.162,35.162,0,0,0,47.3,312.866a37.3,37.3,0,0,1-6.452-7.77,20.486,20.486,0,0,0-6.624-6.735c-3.66-2.312-7.5-3.075-11.515-.792-3.256,1.851-4.448,4.249-3.733,7.944a19.1,19.1,0,0,0,1.313,4.341c5.29,11.463,8.229,23.662,11.3,35.823,1.28,5.074,2.512,10.163,3.764,15.246.129.523.24,1.053.464,2.045-.576-.626-.9-.908-1.141-1.247a62.89,62.89,0,0,1-11.028-26.7,43.546,43.546,0,0,0-4.107-13.166,16.708,16.708,0,0,0-2.337-3.38,2.85,2.85,0,0,0-3.156-1.007,3.079,3.079,0,0,0-2.183,2.766,50.93,50.93,0,0,0-.31,7.628c.634,10.036,3.711,19.447,7.7,28.586A151.825,151.825,0,0,0,29.8,376.13c5.377,8.6,12.594,15.5,20.458,21.761a66.393,66.393,0,0,0,21.5,11.684A31.76,31.76,0,0,1,83.1,415.38a15,15,0,0,1,5.745,12.25c-.262,14.762-.219,29.53-.533,44.29a162.715,162.715,0,0,1-4.67,33.526C81.2,515.911,78.57,526.332,76.2,536.812a100.394,100.394,0,0,0-2.385,31.429c.787,8.646,1.653,17.288,2.477,25.931.74,7.754,1.565,15.5,2.181,23.261.546,6.871.861,13.762,1.259,20.645a19.846,19.846,0,0,1-.091,2.054ZM58.37,346.965c.124-1.972.273-4.654.465-7.335A85.408,85.408,0,0,1,64.8,314.393a22.521,22.521,0,0,1,9.59-11.548,30.736,30.736,0,0,0,8.393-7.292,22.494,22.494,0,0,1,10.882-7.211,11.846,11.846,0,0,1,6.722-.361,21.471,21.471,0,0,1,13.823,10.072c.459.772.949,1.522,1.418,2.287a87.079,87.079,0,0,0,9.667,13.4,28.014,28.014,0,0,1,6.219,12.013c1.038,3.968.571,7.666-3.019,10.392-.876.664-1.625,1.494-2.468,2.208-8.226,6.961-14.1,15.7-18.469,25.4a149.393,149.393,0,0,0-9.3,26.706A66.543,66.543,0,0,1,92.637,406.4c-2.063,3.883-5.048,4.639-8.746,2.285a30.8,30.8,0,0,1-8.666-8.481C64.174,384.44,58.611,366.927,58.37,346.965Zm35.163,64.807a15.662,15.662,0,0,1-.114-2.439,7.111,7.111,0,0,1,2.009-3.766c4.438-5.1,8.875-10.195,13.26-15.337a81.383,81.383,0,0,0,10.39-15.4,150.331,150.331,0,0,0,8.564-19.691,75.929,75.929,0,0,1,17.245-28.407,69.6,69.6,0,0,0,9.729-12.56,66.5,66.5,0,0,1,4.442-6.474,14.982,14.982,0,0,1,3.451-3.223,6.433,6.433,0,0,1,9.926,3.022,16.723,16.723,0,0,1,1.177,6.021c0,10.678-2.444,20.9-6.336,30.78a121.168,121.168,0,0,1-12.952,23.715A122.8,122.8,0,0,1,135.8,389.63a92.953,92.953,0,0,1-39.224,21.7A27.361,27.361,0,0,1,93.533,411.772Zm-14.088-2.009a4.548,4.548,0,0,1-4.206-.366,56.869,56.869,0,0,1-12.079-7.919C49,388.971,39.393,373.8,35.209,355.19c-3.579-15.923-7.239-31.856-14-46.857a16.293,16.293,0,0,1-.889-5.233,4.11,4.11,0,0,1,2.123-3.777c3.319-2.305,7.189-2.337,10.856.023a20.9,20.9,0,0,1,6.616,6.74,35.588,35.588,0,0,0,6.334,7.6,35.109,35.109,0,0,1,9.988,15.7c.843,2.759,1.694,5.548,1.376,8.5a89.181,89.181,0,0,0,.255,22.085,93.019,93.019,0,0,0,11.906,34.357,63.93,63.93,0,0,0,8.9,12.162C79.526,407.378,80.243,408.289,79.445,409.763Zm32.173-1.89-.1-.306c.4-.228.788-.485,1.206-.682,16.148-7.638,28.912-19.287,39.58-33.413,2.451-3.243,4.751-6.6,7.3-9.766a101.509,101.509,0,0,1,9.2-10.589c3.208-3.009,6.638-5.776,9.673-8.992a15.874,15.874,0,0,1,4.1-3.077c2.39-1.262,4.044-.278,4.3,2.413a9.718,9.718,0,0,1-.176,3.279,44.548,44.548,0,0,1-2.194,7.078,84.41,84.41,0,0,1-27.565,33.973c-12.649,9.3-26.863,15.32-41.99,19.29C113.85,407.37,112.73,407.61,111.617,407.873ZM140.35,329.12l.286.235a3.047,3.047,0,0,1-.277.532A91.948,91.948,0,0,0,125.5,357.158c-3.937,11.309-9.249,21.991-16.917,31.333-3.763,4.586-7.613,9.1-11.435,13.638a12.9,12.9,0,0,1-1.095,1.028,3.719,3.719,0,0,1,.245-1.681c.8-2.489,1.727-4.947,2.373-7.475,1.929-7.552,4.384-14.921,7.03-22.253,5.642-15.633,14.915-28.5,28.36-38.312C136.114,331.939,138.252,330.556,140.35,329.12Zm-73.7,77.223.01.227c-1.348-.631-2.744-1.179-4.038-1.908-11.578-6.522-21.64-14.92-29.322-25.74A118.815,118.815,0,0,1,14.339,338.3a47.726,47.726,0,0,1-1.471-17c.154-1.313.469-2.443,1.939-2.855,1.742.386,2.544,1.779,3.34,3.153a29.309,29.309,0,0,1,3.572,13.441,85.265,85.265,0,0,0,2.3,15.71c3.567,14.6,11.544,26.6,22.2,36.894C52.855,394.055,59.827,400.121,66.648,406.343ZM48.776,388.159c-.124.088-.248.174-.373.26a88.061,88.061,0,0,1-20.065-28.051c-2.789-6.232-5.318-16.9-4.712-19.492a10.406,10.406,0,0,1,.378.99,65.7,65.7,0,0,0,12.417,24.045,8.343,8.343,0,0,1,1.28,2.333,74.511,74.511,0,0,0,9.7,17.925C47.873,386.826,48.319,387.5,48.776,388.159Z" transform="translate(-11.505 -286.344)" fill="#ece1ca"/>
      </g>
      <g id="Group_22" data-name="Group 22" transform="translate(29.206 9.391)">
        <path id="Path_1842" data-name="Path 1842" d="M31.1,386.514c8.766-2.133,16.508-6.479,23.665-11.955a55.475,55.475,0,0,0,11.333-11.7,154.768,154.768,0,0,0,21.1-40.508,1.07,1.07,0,0,0,.012-.813c-.171.4-.353.8-.512,1.214a183.715,183.715,0,0,1-19.126,36.508,65.886,65.886,0,0,1-25.454,22.142C38.508,383.228,34.779,384.818,31.1,386.514Z" transform="translate(27.597 -272.643)" fill="#ece1ca"/>
        <path id="Path_1843" data-name="Path 1843" d="M74.254,390.95c-5-27.719-4.972-55.222,3.289-82.418a48.666,48.666,0,0,0-3.307,10.076,154.78,154.78,0,0,0-4.057,39.933A149.877,149.877,0,0,0,74.254,390.95Z" transform="translate(-27.29 -281.179)" fill="#ece1ca"/>
        <path id="Path_1844" data-name="Path 1844" d="M107.378,378.477c-15.522-16.791-17.9-22.4-27.683-43.942.128.472.219.957.386,1.414,4.374,11.967,9.872,23.356,17.69,33.486a104.352,104.352,0,0,0,7.265,7.919,13.3,13.3,0,0,0,2.078,1.49Z" transform="translate(-72.965 -264.119)" fill="#ece1ca"/>
        <path id="Path_1845" data-name="Path 1845" d="M87.868,374.822c-5.715-14.547-8.212-29.705-8.7-44.846C76.727,340.769,83.043,369.444,87.868,374.822Z" transform="translate(-51.687 -267.11)" fill="#ece1ca"/>
        <path id="Path_1846" data-name="Path 1846" d="M32.086,332.994c4.942-9.468,7.969-19.462,10.885-29.65-1.239-.131-1.424.548-1.635,1.184-.626,1.89-1.235,3.786-1.87,5.674q-3.741,11.124-7.485,22.244C31.947,332.55,32.025,332.692,32.086,332.994Z" transform="translate(70.473 -284.593)" fill="#ece1ca"/>
        <path id="Path_1847" data-name="Path 1847" d="M83.481,292.015c-1.408.286-1.746,1.341-2.03,2.264a90.9,90.9,0,0,0-2.479,8.94c-1.09,5.457-1.967,10.955-2.863,16.448-.272,1.664-.315,3.365-.421,5.049C78.426,313.849,79.614,302.627,83.481,292.015Z" transform="translate(-42.43 -292.015)" fill="#ece1ca"/>
        <path id="Path_1848" data-name="Path 1848" d="M41.693,365.365c12.228-5.424,19.856-15.344,25.681-26.953-.361.525-.712,1.057-1.085,1.573-3.011,4.193-5.889,8.489-9.074,12.545-3.786,4.824-8.759,8.345-13.825,11.712C42.826,364.618,42.259,364.99,41.693,365.365Z" transform="translate(29.974 -261.575)" fill="#ece1ca"/>
        <path id="Path_1849" data-name="Path 1849" d="M33.971,322.015a20.552,20.552,0,0,0-3.234,5c-.929,1.606-1.8,3.248-2.749,4.844-.982,1.656-2.012,3.284-3.042,4.912-.994,1.568-2.019,3.118-3.022,4.682-1.03,1.6-2.052,3.211-3.178,4.977C22.491,343.913,33.433,326.524,33.971,322.015Z" transform="translate(101.38 -272.333)" fill="#ece1ca"/>
        <path id="Path_1850" data-name="Path 1850" d="M73.747,323.2A114.588,114.588,0,0,0,71.884,362.7,195.219,195.219,0,0,1,73.747,323.2Z" transform="translate(-24.855 -271.557)" fill="#ece1ca"/>
        <path id="Path_1851" data-name="Path 1851" d="M95.15,298.781l8.819,24.121C103.1,316.017,97.449,299.983,95.15,298.781Z" transform="translate(-95.15 -287.576)" fill="#ece1ca"/>
        <path id="Path_1852" data-name="Path 1852" d="M54.194,316.233a56.475,56.475,0,0,0,3.213-20.9c-1.177,1.5-.758,3.329-1.113,4.99-.371,1.736-.349,3.552-.561,5.328s-.5,3.536-.757,5.3S54.454,314.473,54.194,316.233Z" transform="translate(19.2 -289.839)" fill="#ece1ca"/>
        <path id="Path_1853" data-name="Path 1853" d="M33.721,299.127c-1.693,5.177-2.635,10.546-3.917,16.056C31.54,312.275,34.329,301.341,33.721,299.127Z" transform="translate(83.229 -287.349)" fill="#ece1ca"/>
        <path id="Path_1854" data-name="Path 1854" d="M56.954,293.191c-1.418,4.17-1.057,8.544-1.6,12.813A36.167,36.167,0,0,0,56.954,293.191Z" transform="translate(17.673 -291.244)" fill="#ece1ca"/>
        <path id="Path_1855" data-name="Path 1855" d="M89.036,339.721A41.9,41.9,0,0,0,94.031,351.3l.373-.176Q91.721,345.422,89.036,339.721Z" transform="translate(-75.46 -260.716)" fill="#ece1ca"/>
        <path id="Path_1856" data-name="Path 1856" d="M95.71,301.9q1.95,4.293,3.9,8.588c-.644-3.19-1.419-6.318-3.317-8.968Z" transform="translate(-91.717 -285.781)" fill="#ece1ca"/>
      </g>
    </g>
  </g>
</svg>
