<svg xmlns="http://www.w3.org/2000/svg" width="447.998" height="405.048" viewBox="0 0 447.998 405.048">
  <g id="Group_268" data-name="Group 268" transform="translate(447.498 404.548) rotate(180)">
    <g id="Group_53" data-name="Group 53" transform="translate(85.532 0)">
      <g id="Group_52" data-name="Group 52">
        <g id="Group_50" data-name="Group 50">
          <path id="Path_1930" data-name="Path 1930" d="M548.422,249.733c.577.788,1.05,1.392,1.478,2.027a234.96,234.96,0,0,1,20.236,37.183c2.147,4.9,4.423,9.736,6.728,14.56a57.17,57.17,0,0,0,7.718,12.191,40.979,40.979,0,0,0,3.746,3.806,14.214,14.214,0,0,0,2.585,1.82c4.429,2.528,7.927.492,8.035-4.591a24.668,24.668,0,0,0-.983-7.223c-.656-2.347-1.2-4.726-1.779-7.093a4.42,4.42,0,0,1-.008-.907c3.186-2.171,3.52-5.818,4.267-9.17.787-3.531,1.158-7.153,1.727-10.734a10.315,10.315,0,0,1,.42-1.307c.918.723,1.668,1.337,2.444,1.92A24.362,24.362,0,0,0,614.277,287a12.8,12.8,0,0,0,10.345-2.128,23.221,23.221,0,0,0,2.521-1.919,17.509,17.509,0,0,1,11.427-4.316,12.8,12.8,0,0,0,2.149-.308,9.471,9.471,0,0,0,7.792-8.582,17.943,17.943,0,0,0-1-8.176,81.284,81.284,0,0,0-6.246-13.236c-1.286-2.3-2.623-4.567-3.757-7.133.514.295,1.024.6,1.544.885,2.772,1.524,5.472,3.2,8.336,4.53a11.372,11.372,0,0,0,11.348-.69,29.956,29.956,0,0,1,8.842-3.37c.9-.219,1.8-.434,2.675-.714,4.512-1.441,6.457-5.315,4.6-9.668a18.408,18.408,0,0,0-3.222-4.7,29.56,29.56,0,0,0-9.576-6.934c-5.823-2.808-11.755-5.393-17.643-8.071a62.323,62.323,0,0,1-6.847-3.452c2.578.465,5.138,1.113,7.737,1.349,3.871.354,7.767.457,11.654.585,1.714.057,3.436-.044,5.151-.151a16.71,16.71,0,0,1,7.174,1.066,10.081,10.081,0,0,0,4.069.525,4.541,4.541,0,0,0,3.85-7.107,15.723,15.723,0,0,0-2.442-3.1,55.046,55.046,0,0,0-14.73-10.265,83.394,83.394,0,0,0-29.213-8.785c-3.609-.365-7.237-.645-10.861-.71-6.8-.12-13.611-.057-20.415-.07q-1.672,0-3.344,0c-.022-.163-.043-.327-.063-.49,1.186-.252,2.364-.544,3.56-.748a58.428,58.428,0,0,0,17.188-5.774,29.017,29.017,0,0,0,7.082-5.358q4.42-4.412,8.772-8.887a32.39,32.39,0,0,1,7.9-5.912c2.2-1.194,4.365-2.474,6.464-3.842a8.554,8.554,0,0,0,2.406-2.3,2.852,2.852,0,0,0-2.154-4.672,17.853,17.853,0,0,0-5.674.322A56.846,56.846,0,0,0,626.29,150.9c-4.15,2.452-8.26,4.971-12.361,7.5a127.274,127.274,0,0,1-33.721,14.973,62.222,62.222,0,0,1-9.511,1.759,23.314,23.314,0,0,1-6.291-.341,30.107,30.107,0,0,0-20.9,4.151c-.452.266-.913.512-1.324.742-.2-.068-.365-.075-.444-.159-6.208-6.673-12.491-13.282-17.984-20.58a91.8,91.8,0,0,1-12.74-22.736c-.468-1.238-.485-1.231-1.857-1.652.284.866.492,1.6.761,2.315a92.116,92.116,0,0,0,16.211,27.064c4.358,5.133,9.013,10.014,13.534,15.009.48.531.953,1.069,1.438,1.611a41.017,41.017,0,0,0-6.051,14,57.534,57.534,0,0,1-6.846,15.945c-3.7,6.1-7.567,12.091-11.319,18.158a87.506,87.506,0,0,0-8.113,15.842,46.077,46.077,0,0,0-1.34,28.953,14.391,14.391,0,0,0,1.885,4.113c2.74,4.04,7.566,3.676,9.53-.763a51.372,51.372,0,0,0,2.317-7.133,27.088,27.088,0,0,1,3.021-7.5c2.865-4.507,5.936-8.894,7.769-13.986l.378.108a6.872,6.872,0,0,1-.184,1.273c-2.081,6.188-4.042,12.42-6.307,18.539a170.271,170.271,0,0,0-7.914,26.928,64.991,64.991,0,0,0-1.338,15.352,26.837,26.837,0,0,0,1.954,9.248,16.89,16.89,0,0,0,1.153,2.3c2.689,4.383,6.9,4.451,9.811.179,1.54-2.263,1.985-4.9,2.323-7.5a64.853,64.853,0,0,1,5.423-18.336c1.819-4.033,3.666-8.051,5.471-12.09a74.686,74.686,0,0,0,6-19.823,44.922,44.922,0,0,0-.325-12.431c-.062-.457-.16-.909-.2-1.367A3.5,3.5,0,0,1,548.422,249.733Zm46.588,50.941a21.055,21.055,0,0,0,.246,2.734q.747,3.278,1.649,6.519a22.518,22.518,0,0,1,.95,7.228c-.189,3.668-2.818,5.266-5.981,3.362a26.475,26.475,0,0,1-5.339-4.353,46.3,46.3,0,0,1-7.838-11.628c-2.209-4.429-4.342-8.9-6.3-13.45a256.026,256.026,0,0,0-23.7-43.4c-3.487-5.116-6.489-10.58-9.456-16.026a39.931,39.931,0,0,1-3.34-8.438,53.505,53.505,0,0,1-1.291-19.836,57.663,57.663,0,0,1,5.557-19.5c.419-.861.993-1.648,1.513-2.5.829.308,1.443.53,2.053.763,7.588,2.911,13.672,7.929,19.092,13.817a214.487,214.487,0,0,1,17.776,22.051,144.655,144.655,0,0,1,16.558,29.695,45.444,45.444,0,0,1,2.647,9.088c.709,4.217.918,8.519,1.315,12.786.836,9-.561,17.757-2.832,26.427C597.793,297.93,597.154,299.692,595.01,300.674ZM542.872,180.341c.484-.2.745-.289.98-.419,4.618-2.542,9.416-4.416,14.806-4.424a37.7,37.7,0,0,1,12.594,2.249,158.9,158.9,0,0,1,21.211,9.714c21.146,11.115,42.124,22.556,64.2,31.81a74.98,74.98,0,0,1,9.859,5.45,20.84,20.84,0,0,1,6.224,6.027,7.189,7.189,0,0,1,1.494,5.393c-.49,2.878-2.523,4.242-5.133,4.835a43.154,43.154,0,0,0-12.363,4.63,7.768,7.768,0,0,1-6.695.644,35.478,35.478,0,0,1-6.5-2.834c-3.949-2.393-7.719-5.074-11.578-7.616a25.641,25.641,0,0,0-3.057-1.811,3.839,3.839,0,0,0-4.6.6,6.1,6.1,0,0,1-4.738,1.616c-3.482-.184-6.971-.449-10.426-.907-6.541-.869-12.6-3.313-18.572-5.988a5.6,5.6,0,0,1-2.605-2.291,210.836,210.836,0,0,0-24.494-32.067c-5.458-5.943-11.647-10.924-19.267-13.9C543.909,180.935,543.638,180.751,542.872,180.341Zm47.26,50.183c.879.292,1.376.4,1.828.614a59.849,59.849,0,0,0,19.077,5.628c3.075.328,6.175.479,9.267.576a5.853,5.853,0,0,0,4.513-1.687,3.027,3.027,0,0,1,3.98-.484c2.821,1.622,5.539,3.379,7.2,6.324,2.074,3.679,4.253,7.307,6.173,11.065,1.557,3.046,2.856,6.232,4.166,9.4a15.458,15.458,0,0,1,1.088,6.982,8.544,8.544,0,0,1-7.133,8.3,15.07,15.07,0,0,1-2.345.327,17.587,17.587,0,0,0-10.948,4c-.909.764-1.871,1.467-2.839,2.158a11.721,11.721,0,0,1-12.175,1.3,32.4,32.4,0,0,1-9.484-6.565c.079-8.279-.087-16.62-2.058-24.739C598.456,245.537,594.333,238.206,590.132,230.523Zm-54.54-3.379a9.648,9.648,0,0,1,.682,1.074,119.043,119.043,0,0,0,8.56,15.831,10.172,10.172,0,0,1,1.24,2.463,42.518,42.518,0,0,1,1.646,16.04,67.189,67.189,0,0,1-5.675,20.1c-2.293,5.26-4.7,10.471-6.972,15.74a53,53,0,0,0-3.971,13.425,49.306,49.306,0,0,1-1.448,6.957,10.593,10.593,0,0,1-2.073,3.75c-1.852,2.168-4.347,2.058-6.075-.193a14.91,14.91,0,0,1-1.908-3.441,28.988,28.988,0,0,1-1.808-12.237,93.134,93.134,0,0,1,2.853-18.136,194.523,194.523,0,0,1,8.068-24.392c4.429-11.421,7.374-23.109,6.732-35.486A12.294,12.294,0,0,1,535.592,227.144Zm-2.518-23.709c.157,4.554.331,9.223.469,13.891a14.647,14.647,0,0,1-.111,3.349,48.119,48.119,0,0,1-6.895,17.348c-1.5,2.242-2.761,4.648-4.121,6.985-3.841,6.6-4.572,13.755-4.047,21.219a59.4,59.4,0,0,1-.3,9.462,4.084,4.084,0,0,1-3.037,3.566,3.486,3.486,0,0,1-3.893-1.294,15.264,15.264,0,0,1-2.534-4.393c-1.955-5.52-2.012-11.281-1.535-17.02A46.525,46.525,0,0,1,512.916,238c2.723-4.973,5.628-9.854,8.6-14.681,3.948-6.4,8.189-12.627,11.284-19.519A1.55,1.55,0,0,1,533.074,203.436Zm54.342-20.1c.278-.1.408-.2.515-.182,1.549.3,3.111.565,4.641.948a303.179,303.179,0,0,1,30.285,9.118c10.761,3.929,21.775,6.291,33.3,5.883a30.159,30.159,0,0,1,16.116,4.026A12.7,12.7,0,0,1,676,206.269c1.467,1.89.712,3.826-1.541,4.726a6.389,6.389,0,0,1-5.011-.249,17.087,17.087,0,0,0-7.171-1.061c-6.2.106-12.382.385-18.566-.682a65.123,65.123,0,0,1-19.291-6.224q-17.818-9.3-35.638-18.6C588.337,183.944,587.928,183.653,587.416,183.338ZM672.6,201.85l-.308.319c-.471-.217-.951-.417-1.411-.657a28.794,28.794,0,0,0-13.893-3.313,105.783,105.783,0,0,1-11.671-.455,87.385,87.385,0,0,1-18.832-4.383q-10.6-3.527-21.26-6.882c-3.181-1-6.427-1.794-9.643-2.682a1.791,1.791,0,0,1,1.124-.355c7.729.021,15.458-.043,23.184.1a89.645,89.645,0,0,1,24.6,3.535c9.354,2.853,18.165,6.795,25.91,12.878C671.161,200.556,671.868,201.219,672.6,201.85ZM571.246,176.376c3.66-.783,7.228-1.345,10.679-2.323a130.3,130.3,0,0,0,33.082-14.917q6.227-3.856,12.547-7.559a56.552,56.552,0,0,1,14.673-5.8,14.959,14.959,0,0,1,4.7-.3c2.027.143,2.632,1.792,1.3,3.365a12.172,12.172,0,0,1-2.095,1.792c-3.584,2.656-7.751,3.882-12.025,4.813a43.391,43.391,0,0,0-18.171,8.351c-1.341,1.07-2.712,2.1-4.086,3.133-7.581,5.677-15.691,10.177-25.223,11.711-4.161.671-8.214,1.191-12.128-.982A25.45,25.45,0,0,0,571.246,176.376Zm11.546,3.949c.691-.135,1.378-.3,2.074-.4,6.532-.877,12.83-2.572,18.449-6.088A152.616,152.616,0,0,0,616,165.057a46.44,46.44,0,0,1,18.829-8.788,5.738,5.738,0,0,1,1.2-.011c-3.784,3.793-7.588,7.356-11.1,11.189-5.135,5.609-11.578,8.848-18.7,10.962a94.566,94.566,0,0,1-15.328,2.853A15.6,15.6,0,0,1,582.792,180.325Zm-63.084,89.638c-.121-1.264-.254-2.429-.339-3.6a42.892,42.892,0,0,1,.942-13.35c1.153-4.754,3.612-8.917,6.2-12.964a53.009,53.009,0,0,0,6.984-15.191,6.914,6.914,0,0,1,.533-1.143l.385.071c0,1.173.024,2.349,0,3.522a72.97,72.97,0,0,1-.335,9.269,49.889,49.889,0,0,1-8.209,20.979,34.991,34.991,0,0,0-5.794,12.028C520.042,269.69,519.9,269.766,519.707,269.963Z" transform="translate(-376.046 78.775)" fill="#ece1ca" stroke="rgba(0,0,0,0)" stroke-width="1"/>
          <path id="Path_1931" data-name="Path 1931" d="M733,121.193c-.431-.644-.8-1.25-1.223-1.822a156.793,156.793,0,0,0-24.411-26.725c-9.979-8.56-20.053-17.007-30.075-25.518-7.364-6.253-14.479-12.761-20.437-20.417a120.468,120.468,0,0,1-22.1-44.794c-.16-.633-.355-1.256-.536-1.892h-1.07a2.538,2.538,0,0,0-.025.614A114.933,114.933,0,0,0,642.295,26.1c7.713,15.824,18.648,29.059,32.086,40.33q15.49,12.992,30.868,26.119a159.185,159.185,0,0,1,25.369,27.449C731.612,121.356,731.625,121.347,733,121.193Z" transform="translate(-633.108 -0.026)" fill="#ece1ca" stroke="rgba(0,0,0,0)" stroke-width="1"/>
        </g>
        <g id="Group_51" data-name="Group 51" transform="translate(139.59 259.612)">
          <path id="Path_1932" data-name="Path 1932" d="M562.405,177.517c10.579,15.7,19.343,32.379,27.665,49.539C589.3,220.6,568.686,183.635,562.405,177.517Z" transform="translate(-517.653 -155.673)" fill="#ece1ca" stroke="rgba(0,0,0,0)" stroke-width="1"/>
          <path id="Path_1933" data-name="Path 1933" d="M585.38,167.492c-.338,1.116-.714,2.223-1.008,3.351-1.375,5.258-.8,10.45.633,15.591,2.079,7.464,5.809,14.112,10.22,20.407,1.584,2.261,3.235,4.477,4.855,6.712l.379-.228c-.357-.536-.707-1.075-1.07-1.606a122.987,122.987,0,0,1-9.61-15.67,48.751,48.751,0,0,1-4.986-15.534,32.117,32.117,0,0,1,.853-12.152c.067-.244.1-.5.144-.748Z" transform="translate(-561.633 -161.545)" fill="#ece1ca" stroke="rgba(0,0,0,0)" stroke-width="1"/>
          <path id="Path_1934" data-name="Path 1934" d="M551.783,163.962c2.542.625,5.1,1.18,7.623,1.887,9.515,2.674,18.314,7.006,26.9,11.8,4.66,2.605,9.254,5.327,13.882,7.991a1.193,1.193,0,0,0,.956.162c-2.066-1.351-4.094-2.769-6.208-4.04-9.212-5.542-18.482-11-28.67-14.592-3.953-1.392-8.084-2.29-12.152-3.34a9.693,9.693,0,0,0-2.352-.027Z" transform="translate(-511.839 -163.742)" fill="#ece1ca" stroke="rgba(0,0,0,0)" stroke-width="1"/>
          <path id="Path_1935" data-name="Path 1935" d="M574,252.489a13.767,13.767,0,0,0-.549-1.989c-.476-1.083-1.018-2.142-1.6-3.173-4.981-8.823-9.976-17.637-14.621-25.84C557.878,225.265,569.892,248.462,574,252.489Z" transform="translate(-493.379 -129.917)" fill="#ece1ca" stroke="rgba(0,0,0,0)" stroke-width="1"/>
          <path id="Path_1936" data-name="Path 1936" d="M595.611,246.551c5.986-14.922,7.494-30.351,7.393-46.039-.434,5.805-.652,11.638-1.354,17.412a125.854,125.854,0,0,1-5.858,26.917c-.13.371-.257.744-.355,1.123C595.411,246.063,595.5,246.193,595.611,246.551Z" transform="translate(-582.964 -142.204)" fill="#ece1ca" stroke="rgba(0,0,0,0)" stroke-width="1"/>
          <path id="Path_1937" data-name="Path 1937" d="M602.842,216.7a133.309,133.309,0,0,1,8.308-27.971C606.816,194.856,602.451,210.273,602.842,216.7Z" transform="translate(-602.818 -149.109)" fill="#ece1ca" stroke="rgba(0,0,0,0)" stroke-width="1"/>
          <path id="Path_1938" data-name="Path 1938" d="M543.031,223.93c-4.61-7.994-11.457-13.806-18.6-19.33C530.6,211.078,537.479,216.875,543.031,223.93Z" transform="translate(-410.395 -139.809)" fill="#ece1ca" stroke="rgba(0,0,0,0)" stroke-width="1"/>
          <path id="Path_1939" data-name="Path 1939" d="M550.392,230.962c-5.923-4.535-11.094-9.84-16.374-15.044a42.521,42.521,0,0,0,7.247,8.633C546.928,229.953,548.555,231.151,550.392,230.962Z" transform="translate(-432.958 -133.18)" fill="#ece1ca" stroke="rgba(0,0,0,0)" stroke-width="1"/>
          <path id="Path_1940" data-name="Path 1940" d="M552.24,201.453a3.744,3.744,0,0,0-.553-1.1,83.047,83.047,0,0,0-13.625-10.3l-.268.336,13.924,11.479Z" transform="translate(-440.796 -148.328)" fill="#ece1ca" stroke="rgba(0,0,0,0)" stroke-width="1"/>
          <path id="Path_1941" data-name="Path 1941" d="M512.17,194.848l18.539,11.811a7.29,7.29,0,0,0-.671-1.313,7.788,7.788,0,0,0-1.178-1.047A78.784,78.784,0,0,0,512.17,194.848Z" transform="translate(-378.632 -145.521)" fill="#ece1ca" stroke="rgba(0,0,0,0)" stroke-width="1"/>
          <path id="Path_1942" data-name="Path 1942" d="M512.768,178.427q9.067,3.489,18.135,6.98l.247-.439a18.175,18.175,0,0,0-1.987-1.2,93.971,93.971,0,0,0-14.678-5.131c-.56-.146-1.126-.27-1.69-.4Z" transform="translate(-380.021 -155.251)" fill="#ece1ca" stroke="rgba(0,0,0,0)" stroke-width="1"/>
          <path id="Path_1943" data-name="Path 1943" d="M589.81,169.19a36.783,36.783,0,0,0,4.661,22.1A55.844,55.844,0,0,1,589.81,169.19Z" transform="translate(-565.24 -160.551)" fill="#ece1ca" stroke="rgba(0,0,0,0)" stroke-width="1"/>
          <path id="Path_1944" data-name="Path 1944" d="M596.211,207.714c-.553,6.657-1.108,13.312-1.629,19.567C595.816,225.641,596.868,215.319,596.211,207.714Z" transform="translate(-575.022 -137.985)" fill="#ece1ca" stroke="rgba(0,0,0,0)" stroke-width="1"/>
          <path id="Path_1945" data-name="Path 1945" d="M556.494,230.739c1.5,4.53,5.767,12.123,7.353,13.239C563.769,242.516,559.651,235.014,556.494,230.739Z" transform="translate(-482.057 -124.498)" fill="#ece1ca" stroke="rgba(0,0,0,0)" stroke-width="1"/>
          <path id="Path_1946" data-name="Path 1946" d="M561.823,169.067l16.9,8.33C573.361,174.073,567.958,170.838,561.823,169.067Z" transform="translate(-505.381 -160.623)" fill="#ece1ca" stroke="rgba(0,0,0,0)" stroke-width="1"/>
          <path id="Path_1947" data-name="Path 1947" d="M601.417,202.815c.817-2.62,1.575-5.258,2.463-7.854s1.9-5.127,2.666-7.751C604.1,192.153,601.829,197.157,601.417,202.815Z" transform="translate(-595.991 -149.995)" fill="#ece1ca" stroke="rgba(0,0,0,0)" stroke-width="1"/>
          <path id="Path_1948" data-name="Path 1948" d="M541.188,227.7l-9.123-7.865c1.342,2.548,6.563,7.39,8.78,8.221Z" transform="translate(-420.659 -130.886)" fill="#ece1ca" stroke="rgba(0,0,0,0)" stroke-width="1"/>
          <path id="Path_1949" data-name="Path 1949" d="M510.245,197.376c2.835,2.453,5.587,4.835,8.435,7.3C518.551,202.771,513.886,198.8,510.245,197.376Z" transform="translate(-363.55 -144.041)" fill="#ece1ca" stroke="rgba(0,0,0,0)" stroke-width="1"/>
          <path id="Path_1950" data-name="Path 1950" d="M517.657,180.225a28.665,28.665,0,0,0,6.882,3.314l.224-.565Z" transform="translate(-381.387 -154.087)" fill="#ece1ca" stroke="rgba(0,0,0,0)" stroke-width="1"/>
        </g>
      </g>
    </g>
    <g id="Group_56" data-name="Group 56" transform="translate(0.173 23.333)">
      <g id="Group_54" data-name="Group 54" transform="translate(0)">
        <path id="Path_1951" data-name="Path 1951" d="M783.452,196.995l1.654,1.069c2.712,1.755,5.366,3.611,8.154,5.239a21.206,21.206,0,0,0,9.992,2.916,25.162,25.162,0,0,1,8.815,2.1c3.883,1.629,7.88,2.7,12.153,2.139,4.841-.634,8.574-2.9,10.791-7.377a23.5,23.5,0,0,0,2.393-9.541,52.706,52.706,0,0,0-4.8-23.479,71.655,71.655,0,0,0-18.728-25.271c-.58-.514-1.185-1-1.777-1.5l.3-.457a8.559,8.559,0,0,1,1.373.317c3.723,1.54,7.452,3.07,11.151,4.67a47.125,47.125,0,0,1,10.669,6.416,59.639,59.639,0,0,0,5.736,3.884,12.248,12.248,0,0,0,2.908,1.234,4.322,4.322,0,0,0,5.75-3.966,8.622,8.622,0,0,0-1.118-4.759,33.371,33.371,0,0,0-6.238-7.907A98.111,98.111,0,0,0,818.868,125.7a116.1,116.1,0,0,0-42.661-12.715,138.78,138.78,0,0,0-28.883-.063,100.942,100.942,0,0,0-18.38,3.9,66.8,66.8,0,0,1-8.3,1.814,10.322,10.322,0,0,1-8.552-2.269,66.657,66.657,0,0,1-7.06-6.912,340.285,340.285,0,0,1-22.342-29.3c-5.109-7.309-10.165-14.651-15.84-21.55A75.358,75.358,0,0,0,632.126,34.56c-8.251-2.783-16.585-5.32-24.885-7.957a141.924,141.924,0,0,1-26.978-11.317c-.339-.19-.707-.328-1.18-.545v1.571c3.674,1.784,7.418,3.727,11.264,5.442,8.822,3.934,18.089,6.606,27.28,9.494,5.474,1.721,10.935,3.5,16.333,5.442A72.787,72.787,0,0,1,665.55,59.16c5.767,6.911,10.848,14.318,15.989,21.685,6.43,9.215,13.046,18.288,20.29,26.885a56.945,56.945,0,0,1,7.112,11.165c2.371,4.689,2.284,9.54.864,14.454a8.384,8.384,0,0,1-.893,1.979,97.5,97.5,0,0,0-13.3,39.928,156.088,156.088,0,0,0-.059,36.387,123.967,123.967,0,0,0,6.771,27.648,75.619,75.619,0,0,0,11.386,21.2,52.065,52.065,0,0,0,5.455,5.721,9.7,9.7,0,0,0,5.485,2.567,4.979,4.979,0,0,0,5.915-4,12.794,12.794,0,0,0-.136-6.278c-1.251-4.976-3.563-9.5-5.872-14.039q-2.466-4.852-4.624-9.859a22.788,22.788,0,0,1-1.356-4.745c-.974-5.12-1.851-10.258-2.77-15.39a4.026,4.026,0,0,1-.065-1.816q1.529,3.264,3.056,6.525A65.679,65.679,0,0,0,729.785,235.8c1.995,2.184,3.589,4.73,5.408,7.079,2.344,3.026,4.589,6.145,7.133,9a43.386,43.386,0,0,0,16,11.078,13.9,13.9,0,0,0,12.949-.674c3.646-2.126,5.285-5.686,6.21-9.532a45.37,45.37,0,0,0,1.04-8.236,46.373,46.373,0,0,1,3.027-14.28,52.918,52.918,0,0,0,3.43-23.924c-.214-2.36-.73-4.692-1.115-7.036C783.771,198.655,783.645,198.04,783.452,196.995Zm-78.439-33.813c.086-1.63.173-4.139.355-6.643a58.827,58.827,0,0,1,5.724-22.118,11,11,0,0,1,11.538-6.261,17.69,17.69,0,0,1,5.42,1.735,44.082,44.082,0,0,1,6.314,4.08,158.747,158.747,0,0,1,40.548,45.652,67.2,67.2,0,0,1,8.476,23.125,49.471,49.471,0,0,1-2.659,26.32,50.651,50.651,0,0,0-3.4,16.213c-.032.925-.108,1.847-.176,2.769a22.6,22.6,0,0,1-2.664,9.262,10.56,10.56,0,0,1-6.665,5.231,13.123,13.123,0,0,1-8.915-.641,44.91,44.91,0,0,1-13.477-8.569,65.578,65.578,0,0,1-8.688-10.271,74.178,74.178,0,0,0-5.816-7.761A68.359,68.359,0,0,1,718.3,215.3a201.739,201.739,0,0,1-10.312-29.106A94.406,94.406,0,0,1,705.013,163.182Zm17.031-38.859a4.106,4.106,0,0,1,3.048-2.9,38.457,38.457,0,0,1,8.783-2.312,91.163,91.163,0,0,1,20.551.541c17.044,2.1,32.941,7.518,47.214,17.178,12.371,8.374,22.83,18.549,29.238,32.373a53.706,53.706,0,0,1,5.354,22.556,23.106,23.106,0,0,1-2.694,11.444,11.467,11.467,0,0,1-7.9,5.782,16.694,16.694,0,0,1-8.619-.285c-1.831-.55-3.639-1.194-5.419-1.9a24.409,24.409,0,0,0-8.082-1.784,15.093,15.093,0,0,1-2.359-.265c-6.974-1.383-12.675-5.084-17.734-9.887a5.745,5.745,0,0,1-1.381-2.363c-2.494-7.837-6.828-14.675-11.308-21.476A157.669,157.669,0,0,0,737.8,135.119a54.858,54.858,0,0,0-13.385-8.379A3.533,3.533,0,0,1,722.044,124.323Zm-16.057,18.555.333.176c-.176.836-.349,1.675-.527,2.51a84.532,84.532,0,0,0,.232,37.532c1.76,7.382,3.847,14.69,5.942,21.988,2.077,7.236,4.356,14.422,5.206,21.939a27.731,27.731,0,0,0,1.9,8.262c1.47,3.317,2.983,6.621,4.618,9.859,2.055,4.071,4.255,8.089,5.379,12.529a18.5,18.5,0,0,1,.539,6.048c-.295,3.371-2.693,4.857-5.919,3.761a11.736,11.736,0,0,1-4.242-2.433,54.026,54.026,0,0,1-6.086-6.744,72.958,72.958,0,0,1-9.9-18.875,125.414,125.414,0,0,1-6.838-27.424,156.7,156.7,0,0,1-.322-33.223,101.924,101.924,0,0,1,8.406-33.271C705.107,144.622,705.558,143.755,705.987,142.878Zm21.347-24.143a22.648,22.648,0,0,1,2.372-.915c4.291-1.059,8.547-2.347,12.9-3.065a123.769,123.769,0,0,1,32.991-.652A115.863,115.863,0,0,1,815.26,125.24c9.6,4.721,18.523,10.474,26.139,18.055a54.325,54.325,0,0,1,5.7,6.825,10.186,10.186,0,0,1,1.6,4.194c.49,3.013-1.84,4.886-4.637,3.693a21.872,21.872,0,0,1-5.225-3.149c-4.137-3.39-8.173-6.909-12.163-10.472-5.488-4.9-11.172-9.575-17.77-12.87-15.647-7.818-32.046-12.989-49.715-13.4-5.019-.119-10.033-.373-15.05-.523a53.3,53.3,0,0,0-5.74.036C734.865,117.9,731.341,118.324,727.334,118.735Zm36.315.934.051-.2a3.408,3.408,0,0,1,.576-.067c.461.025.92.086,1.381.121a102.369,102.369,0,0,1,21.864,4.543c14.763,4.421,28.185,11.219,39.36,22.037.523.507,1.04,1.02,1.559,1.53l-.271.311c-2.479-1.053-4.933-2.161-7.439-3.146-7.326-2.881-14.468-6.105-20.927-10.69a45.839,45.839,0,0,0-4.075-2.442A113.493,113.493,0,0,0,766.8,120.522C765.745,120.264,764.7,119.954,763.649,119.669Z" transform="translate(-579.082 -14.74)" fill="#ece1ca" stroke="rgba(0,0,0,0)" stroke-width="1"/>
      </g>
      <g id="Group_55" data-name="Group 55" transform="translate(115.926 101.906)">
        <path id="Path_1952" data-name="Path 1952" d="M681.5,134.4a122.682,122.682,0,0,0-19.227-23.571A106.425,106.425,0,0,0,620.354,86.5a62.909,62.909,0,0,0-15.645-3.065c-.388-.017-.777,0-.859,0,3.523.706,7.366,1.3,11.116,2.258a106.391,106.391,0,0,1,42.753,22.351c8.284,7.011,15.138,15.277,21.46,24.03.644.891,1.329,1.752,2,2.628Z" transform="translate(-565.777 -76.414)" fill="#ece1ca" stroke="rgba(0,0,0,0)" stroke-width="1"/>
        <path id="Path_1953" data-name="Path 1953" d="M674.593,172.719c-12.921-20.461-22.613-42.17-26.114-66.349l-.431.1c.211,1.993.352,4,.644,5.978,2.076,14.047,7.328,27.02,13.492,39.677a156.041,156.041,0,0,0,11.73,19.714C674.122,172.145,674.366,172.426,674.593,172.719Z" transform="translate(-628.96 -62.974)" fill="#ece1ca" stroke="rgba(0,0,0,0)" stroke-width="1"/>
        <path id="Path_1954" data-name="Path 1954" d="M683.623,178.4c-11.252-18.052-18.033-37.462-17.973-58.949l-.434.048c.152,4.551,0,9.139.512,13.65a96.6,96.6,0,0,0,16.925,44.609c.186.266.384.523.576.785Z" transform="translate(-665.216 -55.312)" fill="#ece1ca" stroke="rgba(0,0,0,0)" stroke-width="1"/>
        <path id="Path_1955" data-name="Path 1955" d="M638.908,85.959a14.957,14.957,0,0,0,1.591.769c6.9,2.4,12.5,6.758,17.687,11.716A171.207,171.207,0,0,1,678.1,121.488a2.44,2.44,0,0,0,1.059.945,7.636,7.636,0,0,0-.363-.72A122.388,122.388,0,0,0,652.707,92.15a31.815,31.815,0,0,0-12.064-6.159c-.563-.144-1.147-.2-1.721-.3Z" transform="translate(-619.037 -75.087)" fill="#ece1ca" stroke="rgba(0,0,0,0)" stroke-width="1"/>
        <path id="Path_1956" data-name="Path 1956" d="M649.7,93.429c1.153,8.423,4.244,16.108,8.213,23.437,3.517,6.5,7.293,12.852,10.962,19.265a8.288,8.288,0,0,0,1.286,1.717C662.512,123.4,653.431,109.623,649.7,93.429Z" transform="translate(-627.144 -70.554)" fill="#ece1ca" stroke="rgba(0,0,0,0)" stroke-width="1"/>
        <path id="Path_1957" data-name="Path 1957" d="M648.965,102.7a16.078,16.078,0,0,0-1.641-1.644,110.848,110.848,0,0,0-41.962-19.963c-4.021-.939-8.156-1.4-12.242-2.047a5.422,5.422,0,0,0-1.6.067c20.981,2.375,39.7,10.29,56.464,22.978a8.7,8.7,0,0,0,1.013.576Z" transform="translate(-513.726 -79.004)" fill="#ece1ca" stroke="rgba(0,0,0,0)" stroke-width="1"/>
        <path id="Path_1958" data-name="Path 1958" d="M616.009,87.853c14.727,6.792,28.837,14.529,39.939,26.767C651.679,106.839,627.631,90.653,616.009,87.853Z" transform="translate(-559.51 -73.82)" fill="#ece1ca" stroke="rgba(0,0,0,0)" stroke-width="1"/>
        <path id="Path_1959" data-name="Path 1959" d="M623.955,137.985c3.93,9.786,9.177,19,12.635,29.091a2.812,2.812,0,0,0,.2-1.029,25,25,0,0,0-.866-3.433A141.02,141.02,0,0,0,623.955,137.985Z" transform="translate(-552.969 -44.456)" fill="#ece1ca" stroke="rgba(0,0,0,0)" stroke-width="1"/>
        <path id="Path_1960" data-name="Path 1960" d="M604.851,120.713c2.5,5.211,16.037,21.871,19.042,23.569a.667.667,0,0,0,.13-.147c.027-.056.049-.154.021-.189C617.727,136.295,611.406,128.647,604.851,120.713Z" transform="translate(-509.924 -54.573)" fill="#ece1ca" stroke="rgba(0,0,0,0)" stroke-width="1"/>
        <path id="Path_1961" data-name="Path 1961" d="M635.5,100.948c6.736,9.058,13.59,18.041,18.856,28.095C653.3,124.129,641.425,106.336,635.5,100.948Z" transform="translate(-588.829 -66.15)" fill="#ece1ca" stroke="rgba(0,0,0,0)" stroke-width="1"/>
        <path id="Path_1962" data-name="Path 1962" d="M587.3,111.7c4.914,9.021,9.568,18.055,11.983,28.092l.515-.138c-.079-.552-.122-1.11-.247-1.652-1.893-8.249-5.629-15.7-9.984-22.871C588.861,113.959,588.062,112.841,587.3,111.7Z" transform="translate(-457.847 -59.853)" fill="#ece1ca" stroke="rgba(0,0,0,0)" stroke-width="1"/>
        <path id="Path_1963" data-name="Path 1963" d="M670.257,127.933c1.388,9.155,3.276,17.908,7.994,25.794a163.442,163.442,0,0,1-7.678-25.543C670.563,128.142,670.49,128.114,670.257,127.933Z" transform="translate(-667.837 -50.344)" fill="#ece1ca" stroke="rgba(0,0,0,0)" stroke-width="1"/>
        <path id="Path_1964" data-name="Path 1964" d="M664.322,87.116c-2.027,1.779-2.087,4.115-1.982,6.389.311,6.7,2.172,13.067,4.308,19.367.051.152.206.27.464.59-.9-3.723-1.874-7.2-2.562-10.724-.626-3.214-.994-6.484-1.377-9.741a8.575,8.575,0,0,1,.982-4.975A3.138,3.138,0,0,0,664.322,87.116Z" transform="translate(-644.095 -74.252)" fill="#ece1ca" stroke="rgba(0,0,0,0)" stroke-width="1"/>
        <path id="Path_1965" data-name="Path 1965" d="M635.717,174.089a3.582,3.582,0,0,0-.246-1.17c-2.889-4.608-5.807-9.2-8.863-13.7a113.818,113.818,0,0,0,8.55,15.117Z" transform="translate(-556.086 -32.018)" fill="#ece1ca" stroke="rgba(0,0,0,0)" stroke-width="1"/>
        <path id="Path_1966" data-name="Path 1966" d="M602.128,128.981l10.043,12.957.419-.239c-.076-.333-.051-.75-.244-.99q-4.881-6.061-9.806-12.083Z" transform="translate(-494.14 -49.938)" fill="#ece1ca" stroke="rgba(0,0,0,0)" stroke-width="1"/>
        <path id="Path_1967" data-name="Path 1967" d="M623.1,144.428q2.414,6.5,4.836,13.022c.874-.35.671-.945.452-1.492-1.215-3.038-2.423-6.081-3.692-9.1a26.091,26.091,0,0,0-1.413-2.561Z" transform="translate(-543.384 -40.758)" fill="#ece1ca" stroke="rgba(0,0,0,0)" stroke-width="1"/>
        <path id="Path_1968" data-name="Path 1968" d="M590.251,93.922q.9.9,1.79,1.8l.273-.331-2.095-1.437Z" transform="translate(-454.98 -70.266)" fill="#ece1ca" stroke="rgba(0,0,0,0)" stroke-width="1"/>
      </g>
    </g>
    <g id="Group_61" data-name="Group 61" transform="translate(0 4.705)">
      <g id="Group_57" data-name="Group 57" transform="translate(0 25.409)">
        <path id="Path_1969" data-name="Path 1969" d="M468.152,56.934c6.979.519,13.963.98,20.935,1.576,6.246.533,12.48,1.226,18.72,1.827,9.465.91,18.924,2.014,28.458,1.654a168.033,168.033,0,0,0,28.68-3.352c10.32-2.2,20.588-4.645,30.854-7.084A160.5,160.5,0,0,1,643,47.668c6.392.393,12.791.737,19.161,1.373a288.367,288.367,0,0,1,32.616,5.236c17.946,3.9,35.461,9.351,53.018,14.651,7.515,2.268,15.015,4.6,22.767,5.972,1.491.263,3,.423,4.5.655.709.109,1.408.274,2.285.447-.85,2.6-1.575,5.109-2.491,7.545-1.115,2.964-2.363,5.877-3.6,8.791-1.713,4.02-3.287,8.07-3.527,12.507-.328,6.126.809,11.839,4.737,16.749a13.674,13.674,0,0,0,11.471,5.2,8.576,8.576,0,0,0,5.912-2.409c.371-.347.76-.676,1.411-1.253-.109,1.637-.236,2.923-.276,4.212a77.881,77.881,0,0,0,4.844,29.512,67.69,67.69,0,0,0,12.041,21.257,40.34,40.34,0,0,0,9.748,8.343A10.668,10.668,0,0,0,823,188.237a4.286,4.286,0,0,0,4.664-4.3,11.944,11.944,0,0,0-.634-4.262,60.771,60.771,0,0,0-3.642-8.544,31.974,31.974,0,0,1-4.275-12.637,43.4,43.4,0,0,0-3.251-11.993,4.246,4.246,0,0,1-.344-1.968c.5.736,1.009,1.464,1.489,2.211a61.154,61.154,0,0,0,12.12,14.058,41.55,41.55,0,0,0,27.216,10.241,15.689,15.689,0,0,0,6.895-1.568c2.544-1.221,3.373-2.593,2.862-5.4a42.642,42.642,0,0,0-1.619-5.282c-.235-.729-.514-1.445-.872-2.445.739.132,1.164.2,1.583.284,2.448.519,4.876,1.205,7.35,1.521a9.742,9.742,0,0,0,7.331-1.708,5.808,5.808,0,0,0,2.4-5.341,21.142,21.142,0,0,0-2.146-8.379c-.906-1.8-1.755-3.619-2.78-5.739a37.28,37.28,0,0,0,13.225,1.524,42.735,42.735,0,0,0,15.406-3.256c5.882-2.528,8.918-7.131,9.169-13.411.083-2.1-.7-4.261-1.223-6.36-.363-1.465-1.108-2.843-1.4-4.316a12.167,12.167,0,0,1-.157-4.105,17.805,17.805,0,0,0-8.376-18.093,30.255,30.255,0,0,0-11.49-3.987c.875-.622,1.479-1.074,2.1-1.491a24.5,24.5,0,0,0,8.119-8.535,16,16,0,0,0,1.652-10.141c-.695-5.212-3.476-9-7.588-12.028-5.047-3.719-10.834-5.69-16.8-7.241a61.239,61.239,0,0,0-19.267-1.552c-2.875.174-5.721.844-8.755,1.123.812-.519,1.592-1.1,2.442-1.545a39.4,39.4,0,0,0,9.419-6.855,19.778,19.778,0,0,0,4.542-6.435,12.232,12.232,0,0,0,.883-3.029,7,7,0,0,0-7.16-8.232,25.451,25.451,0,0,0-6.07.777A97.19,97.19,0,0,1,838.5,22.826a18.2,18.2,0,0,0-7.872,2.49c-12.955,7.418-22.5,17.811-27.552,32.019-.878,2.471-1.368,5.081-2.068,7.745-3.952-3.091-8.281-2.008-12.439-.81-4.175,1.2-7.152,4.121-9.2,7.951-.4.747-.825,1.478-1.384,2.474-3.451-.563-6.96-.844-10.306-1.736q-14.624-3.9-29.133-8.225c-15.234-4.572-30.492-9.025-46.074-12.28q-12.987-2.712-26.163-4.255A303.458,303.458,0,0,0,634.3,46.062a155.323,155.323,0,0,0-37.911,4.009c-9.564,2.269-19.115,4.6-28.716,6.7a144.268,144.268,0,0,1-24.283,3.408c-6.065.271-12.15.466-18.215.3-5.2-.144-10.393-.828-15.585-1.311-4.665-.434-9.323-.956-13.989-1.375Q486.826,57,478.038,56.33c-3.29-.252-6.59-.395-9.886-.585Zm393.94,97.811c.476,1.662.8,2.91,1.193,4.137.517,1.63,1.183,3.221,1.6,4.875.634,2.491.02,3.617-2.352,4.727a16.287,16.287,0,0,1-7.91,1.391,40.619,40.619,0,0,1-12.887-2.827c-8.286-3.294-14.814-8.864-20.1-15.884-9.223-12.237-15.323-25.838-17.033-41.184a68.413,68.413,0,0,1,.527-19.132,2.624,2.624,0,0,1,1.47-2.261c1.375.528,2.769,1.116,4.2,1.606a97.134,97.134,0,0,0,30.9,5.087,12.324,12.324,0,0,1,8.9,3.462,23.741,23.741,0,0,1,3.4,4.08,74.523,74.523,0,0,1,7.861,17.026,49.3,49.3,0,0,0,11.4,18.794c2.073,2.114,3.847,4.521,5.748,6.8a9.018,9.018,0,0,1,2.009,6.446,4.427,4.427,0,0,1-1.535,3.283,7.936,7.936,0,0,1-6.665,1.817c-2.793-.366-5.528-1.169-8.289-1.773C863.868,155.071,863.205,154.959,862.092,154.745ZM806.8,87.226a5.278,5.278,0,0,1,.013-1.169,24.389,24.389,0,0,1,.888-2.827,27.6,27.6,0,0,1,10.688-13.182,56.762,56.762,0,0,0,10.834-8.913c.723-.769,1.5-1.5,2.285-2.2,6.189-5.495,12.97-10.022,21.029-12.261A53.163,53.163,0,0,1,876.671,46a51.187,51.187,0,0,1,15.857,5.395c4.653,2.6,8.676,5.788,10.176,11.287,1.28,4.7,1.11,9.118-1.89,13.19a25.773,25.773,0,0,1-5.869,5.848,54.618,54.618,0,0,1-11.259,6.175c-9.234,3.7-18.929,5.314-28.773,5.893a125.523,125.523,0,0,1-25.5-.649,96.752,96.752,0,0,1-19.233-4.469C809.014,88.245,807.894,87.7,806.8,87.226Zm41.759,8.4c5.16-.5,10.09-.879,14.993-1.476,9.227-1.126,18.144-3.365,26.415-7.791a3.819,3.819,0,0,1,2.252-.444c4.473.747,8.79,2.107,12.374,4.94,4.965,3.925,7.648,8.969,6.622,15.548a12.847,12.847,0,0,0,.59,6.827q.764,1.929,1.442,3.9a13.71,13.71,0,0,1,.363,7.61,12.915,12.915,0,0,1-8.186,9.5,43.619,43.619,0,0,1-20.356,3.046,59.282,59.282,0,0,1-6.614-1.034,3.9,3.9,0,0,1-2.98-2.615c-.764-1.966-1.7-3.864-2.493-5.821a76.094,76.094,0,0,0-23.821-31.56A6.863,6.863,0,0,1,848.556,95.629Zm-42.7-11.448c-.287-.52-.452-.782-.581-1.061a17.666,17.666,0,0,1-.737-13.27,39.733,39.733,0,0,1,17.946-22.8,94.057,94.057,0,0,1,11.776-5.6,41.1,41.1,0,0,0,14.471-9.8c1.9-2.02,3.879-3.963,5.793-5.969a16.769,16.769,0,0,1,8.742-4.722,2.967,2.967,0,0,1,2.9.793,5.552,5.552,0,0,1,1.747,3.452,10.231,10.231,0,0,1-2.044,7.061,28.616,28.616,0,0,1-8.034,7.83c-3.43,2.339-6.938,4.564-10.414,6.833a7.8,7.8,0,0,1-.874.465,63.768,63.768,0,0,0-18.661,13.176A55.055,55.055,0,0,1,817.8,68.822a28.486,28.486,0,0,0-11.038,13.384C806.511,82.794,806.231,83.368,805.86,84.182Zm-18.112,6.727a4.806,4.806,0,0,0,3.1-4.546c.127-2.431.17-4.868.162-7.3-.008-2.375-.238-4.754-.17-7.126.112-3.956,1.581-6.051,4.781-7.195A4.342,4.342,0,0,1,801,68.429a55.738,55.738,0,0,0,.493,5.912,42.657,42.657,0,0,0,3.593,11.072c.308.679.641,1.709.346,2.226a14.911,14.911,0,0,0-1.544,4.651,3.071,3.071,0,0,1-.752,1.113c-1.029,1.281-2.2,2.467-3.091,3.836a56.421,56.421,0,0,0-8.144,21.092,8.5,8.5,0,0,1-9.573,7.182,18.022,18.022,0,0,1-5.234-1.657c-3.866-2.015-4.583-3.763-3.828-8.1.046-.26.062-.526.111-.785.755-4.083,2.647-7.271,6.755-8.812a42.479,42.479,0,0,0,4.692-2.114,12.778,12.778,0,0,0,5.336-4.887,4.406,4.406,0,0,0-.314-5.347C789.159,92.932,788.538,92.009,787.747,90.909Zm5.055,28.81.322-.006a2.517,2.517,0,0,1,.277.479,4.536,4.536,0,0,1,.233.961A28.826,28.826,0,0,0,799.05,135.2a18.8,18.8,0,0,1,2.994,6.633,13.893,13.893,0,0,0,3.327,6.215c1.151,1.273,2.366,2.488,3.513,3.766,1.939,2.161,4.015,4.226,5.734,6.552a88.287,88.287,0,0,1,11.226,21.5,13.951,13.951,0,0,1,.595,2.293c.691,3.558-1.662,5.758-5.1,4.586a20.792,20.792,0,0,1-4.889-2.536,44.421,44.421,0,0,1-12.973-14.238,77.413,77.413,0,0,1-11.316-40.259C792.149,126.377,792.577,123.049,792.8,119.718Zm9.92-47.127a27.678,27.678,0,0,1,.637-11.846c4.527-15.669,14.565-26.834,28.6-34.607a18.3,18.3,0,0,1,6.954-2.081,94.261,94.261,0,0,0,15.775-2.689c1.755-.477,3.571-.728,5.36-1.083l.141.425a18.467,18.467,0,0,0-6.836,4.492c-1.844,1.893-3.746,3.73-5.56,5.652a39.091,39.091,0,0,1-14.175,9.553,87.431,87.431,0,0,0-8.844,3.977C813.685,50.31,806.121,59.1,803.146,71.528A7.718,7.718,0,0,1,802.723,72.592Zm-30.61,45.716-.308.071c-.406-.812-.859-1.6-1.208-2.437a25.374,25.374,0,0,1-1.364-13.23c.477-3.774,2.138-7.18,3.539-10.667,1.5-3.73,2.823-7.529,4.331-11.252a81.533,81.533,0,0,1,3.857-8.658,14.214,14.214,0,0,1,9.737-7.176,8.508,8.508,0,0,1,1.635-.014,12.531,12.531,0,0,0-2.7,8.731c.07,2.574.265,5.144.3,7.718a39.589,39.589,0,0,1-.255,5.13,3.317,3.317,0,0,1-2.3,3.16,4.541,4.541,0,0,0-.956.647,12.781,12.781,0,0,0,.756,1.765c.48.785,1.064,1.51,1.609,2.255,1.258,1.722,1.315,2.731.136,4.508a12.145,12.145,0,0,1-4.732,4.113c-1.587.806-3.211,1.551-4.865,2.2a10.442,10.442,0,0,0-6.59,8.064C772.38,114.9,772.311,116.615,772.113,118.307Zm45.817,42.6c-.27-.354-.528-.715-.81-1.058-2.35-2.845-4.676-5.71-7.068-8.52-1.067-1.256-2.269-2.394-3.4-3.6a16.167,16.167,0,0,1-3.739-6.644,34.562,34.562,0,0,0-2.655-5.924c-.755-1.459-1.817-2.758-2.6-4.207A27.684,27.684,0,0,1,794.7,112.57c1.15-6.41,4.312-11.987,8.051-17.24.113-.16.369-.219.568-.33,0,5-.271,9.893.065,14.741a69.556,69.556,0,0,0,4.8,19.716c2.653,7.022,5.334,14.035,7.944,21.073A30.283,30.283,0,0,1,817.93,160.905Zm38.462-56,.322-.208a9.161,9.161,0,0,1,.714.663,79.889,79.889,0,0,1,13.577,20.767c1.911,4.407,4.012,8.733,6.037,13.09.571,1.229,1.183,2.437,1.776,3.655a62.785,62.785,0,0,1-4.505-4.662,51.43,51.43,0,0,1-11.408-18.772c-1.47-4.08-3.365-8.008-5.108-11.988C857.411,106.565,856.865,105.751,856.393,104.9Z" transform="translate(-468.152 -19.017)" fill="#ece1ca" stroke="rgba(0,0,0,0)" stroke-width="1"/>
      </g>
      <g id="Group_58" data-name="Group 58" transform="translate(307.297 59.541)">
        <path id="Path_1970" data-name="Path 1970" d="M558.276,51.357c-23.594-1.1-46.22,2.667-67.534,13.046l.127.531c.439-.187.886-.355,1.316-.563a119.179,119.179,0,0,1,28.467-9.234c5.536-1.118,11.142-1.9,16.734-2.716,2.276-.331,4.6-.379,6.9-.487C548.947,51.717,553.612,51.547,558.276,51.357Z" transform="translate(-454.395 -34.314)" fill="#ece1ca" stroke="rgba(0,0,0,0)" stroke-width="1"/>
        <path id="Path_1971" data-name="Path 1971" d="M559.244,104.479A94.014,94.014,0,0,1,543.97,86.753c-2.877-4.372-5.411-8.933-6.53-14.1-.5-2.3-.637-4.678-.94-7.023-3.127-1.367-6.394-2.794-9.66-4.22l-.151.331,9.364,4.627-.136.39a34.56,34.56,0,0,0-12.542-1.911c4.171,1.08,8.557,1.305,12.558,3.054.374,7.761,3.788,14.24,8.081,20.355a76.1,76.1,0,0,0,12.8,14.269C557.6,103.2,558.433,103.829,559.244,104.479Z" transform="translate(-507.109 -28.317)" fill="#ece1ca" stroke="rgba(0,0,0,0)" stroke-width="1"/>
        <path id="Path_1972" data-name="Path 1972" d="M526.976,95.97c-.6-.817-1.143-1.686-1.819-2.437a67.373,67.373,0,0,0-11.129-9.756c-4.919-3.516-9.894-6.954-14.99-10.23,9.2,7.562,19.549,13.706,27.457,22.822Z" transform="translate(-436.25 -21.208)" fill="#ece1ca" stroke="rgba(0,0,0,0)" stroke-width="1"/>
        <path id="Path_1973" data-name="Path 1973" d="M479.831,75.9c9.687,7.675,19.543,15.047,32.183,17.35-3.7-1.479-7.5-2.742-11.062-4.5A113.681,113.681,0,0,1,490.2,82.506c-3.441-2.192-6.728-4.624-10.084-6.952Z" transform="translate(-390.831 -20.032)" fill="#ece1ca" stroke="rgba(0,0,0,0)" stroke-width="1"/>
        <path id="Path_1974" data-name="Path 1974" d="M516.284,87.523a92.2,92.2,0,0,0,13.628,21.257,43.811,43.811,0,0,0,12.2,9.621C530.259,110.8,523.29,99.153,516.284,87.523Z" transform="translate(-478.734 -13.021)" fill="#ece1ca" stroke="rgba(0,0,0,0)" stroke-width="1"/>
        <path id="Path_1975" data-name="Path 1975" d="M476.95,44.794c10.212-.468,20.009-1.865,29.847-.113a9.105,9.105,0,0,0-5.53-1.663A107.959,107.959,0,0,0,479,44.241C478.418,44.339,477.859,44.545,476.95,44.794Z" transform="translate(-381.046 -39.151)" fill="#ece1ca" stroke="rgba(0,0,0,0)" stroke-width="1"/>
        <path id="Path_1976" data-name="Path 1976" d="M521.623,109.532c-7.894-3.6-14.806-8.057-22.05-12.02,1.618,1.224,3.2,2.5,4.865,3.655,1.784,1.243,3.62,2.415,5.476,3.55,1.8,1.1,3.636,2.139,5.482,3.16C518.962,109.851,519.717,110.071,521.623,109.532Z" transform="translate(-431.746 -7.17)" fill="#ece1ca" stroke="rgba(0,0,0,0)" stroke-width="1"/>
        <path id="Path_1977" data-name="Path 1977" d="M534,92.366a54.222,54.222,0,0,0,17.713,34.1A63.032,63.032,0,0,1,534,92.366Z" transform="translate(-516.421 -10.185)" fill="#ece1ca" stroke="rgba(0,0,0,0)" stroke-width="1"/>
        <path id="Path_1978" data-name="Path 1978" d="M507.639,52.92c8.723-6.072,18.615-9.253,28.464-12.1C529.683,40.666,511.115,48.425,507.639,52.92Z" transform="translate(-459.017 -40.38)" fill="#ece1ca" stroke="rgba(0,0,0,0)" stroke-width="1"/>
        <path id="Path_1979" data-name="Path 1979" d="M537.153,40.541c-5.466,5.691-9.258,17.543-7.3,23.636.168-4.215.2-8.495,1.866-12.418C533.367,47.886,535.38,44.169,537.153,40.541Z" transform="translate(-494.464 -40.541)" fill="#ece1ca" stroke="rgba(0,0,0,0)" stroke-width="1"/>
        <path id="Path_1980" data-name="Path 1980" d="M519.435,72.043c-7.824-2.185-15.426-5.323-23.685-5.634l-.106.444c3.961.874,7.934,1.7,11.882,2.634s7.88,1.957,11.817,2.942Z" transform="translate(-423.328 -25.389)" fill="#ece1ca" stroke="rgba(0,0,0,0)" stroke-width="1"/>
        <path id="Path_1981" data-name="Path 1981" d="M488.384,79.2c-2.109-1.137-4.272-1.235-6.248-1.889-2-.658-4.007-1.272-6.016-1.895-2.065-.639-4.132-1.264-6.2-1.9C472.94,75.944,485.729,80.026,488.384,79.2Z" transform="translate(-351.486 -21.226)" fill="#ece1ca" stroke="rgba(0,0,0,0)" stroke-width="1"/>
        <path id="Path_1982" data-name="Path 1982" d="M531.175,53.495c-9.449.685-18.748,2.141-27.678,5.471A213.686,213.686,0,0,1,531.175,53.495Z" transform="translate(-447.52 -32.953)" fill="#ece1ca" stroke="rgba(0,0,0,0)" stroke-width="1"/>
        <path id="Path_1983" data-name="Path 1983" d="M540.5,84.562a57.807,57.807,0,0,1-9.813-18.717A35.709,35.709,0,0,0,540.5,84.562Z" transform="translate(-499.967 -25.719)" fill="#ece1ca" stroke="rgba(0,0,0,0)" stroke-width="1"/>
        <path id="Path_1984" data-name="Path 1984" d="M546.162,77.2l16-5.108C556.631,73.2,550.986,73.929,546.162,77.2Z" transform="translate(-546.162 -22.059)" fill="#ece1ca" stroke="rgba(0,0,0,0)" stroke-width="1"/>
        <path id="Path_1985" data-name="Path 1985" d="M501,77.915c3.316,2.973,6.632,5.945,10.022,8.982C510.6,84.938,505.2,80.018,501,77.915Z" transform="translate(-423.395 -18.649)" fill="#ece1ca" stroke="rgba(0,0,0,0)" stroke-width="1"/>
        <path id="Path_1986" data-name="Path 1986" d="M537.777,97.312c1.858,5.595,3.96,11.083,7.986,15.547-1.465-2.544-3.027-5.04-4.369-7.648C540.071,102.637,538.974,99.949,537.777,97.312Z" transform="translate(-516.468 -7.287)" fill="#ece1ca" stroke="rgba(0,0,0,0)" stroke-width="1"/>
        <path id="Path_1987" data-name="Path 1987" d="M509.862,107.693c-2.957-1.316-5.917-2.631-9.066-4.031,1.7,1.955,7.125,4.649,8.882,4.51Z" transform="translate(-421.924 -3.568)" fill="#ece1ca" stroke="rgba(0,0,0,0)" stroke-width="1"/>
        <path id="Path_1988" data-name="Path 1988" d="M488.7,43.414c-2.068-1.559-7.4-2.578-10.767-2.261Z" transform="translate(-364.5 -40.217)" fill="#ece1ca" stroke="rgba(0,0,0,0)" stroke-width="1"/>
        <path id="Path_1989" data-name="Path 1989" d="M530.459,57.394q1.87-5.442,3.736-10.888C532.259,49.922,530.648,53.455,530.459,57.394Z" transform="translate(-493.296 -37.047)" fill="#ece1ca" stroke="rgba(0,0,0,0)" stroke-width="1"/>
        <path id="Path_1990" data-name="Path 1990" d="M479.179,76.515c-2.675-1.407-5.71-1.633-8.744-2.566C472.477,75.379,477.454,76.9,479.179,76.515Z" transform="translate(-343.096 -20.972)" fill="#ece1ca" stroke="rgba(0,0,0,0)" stroke-width="1"/>
      </g>
      <g id="Group_59" data-name="Group 59" transform="translate(9.671 63.261)">
        <path id="Path_1991" data-name="Path 1991" d="M714.93,43.29a12.458,12.458,0,0,0,1.481.747A26.207,26.207,0,0,1,729.7,54.511a54.637,54.637,0,0,1,8.546,22.156A82.806,82.806,0,0,1,739.321,96c-.376,5.046-1.276,10.063-2.155,15.057-1.231,7.007-2.886,13.948-3.936,20.981a108.569,108.569,0,0,0-1.11,20.922c.569,12.732,3.7,24.869,7.88,36.8.645,1.843,1.525,3.6,2.264,5.322,1.037.043,1.254-.454,1.205-1.129-.247-3.42-.653-6.838-.734-10.261-.116-5.009-.17-10.031.046-15.036.449-10.371,4.085-19.822,8.8-28.918A84.734,84.734,0,0,0,759.6,117.26c3.433-17.2.254-33.047-9.913-47.387-6.66-9.4-15.188-16.852-24.746-23.158a23.056,23.056,0,0,0-7.673-3.563,21.83,21.83,0,0,0-2.236-.265Zm15.721,9.763c.27-.038.414-.106.5-.062a3.943,3.943,0,0,1,.653.442A86.691,86.691,0,0,1,749.75,72.587a57.373,57.373,0,0,1,9.377,38.611,69.259,69.259,0,0,1-5.292,20.009c-1.962,4.61-4.237,9.085-6.365,13.625-5.366,11.449-7.069,23.529-6.24,36.055.179,2.716.268,5.438.4,8.159a3.549,3.549,0,0,1-.821-1.376,154.19,154.19,0,0,1-5.836-21.948,38.513,38.513,0,0,1-.725-11.416,60.4,60.4,0,0,1,8.385-24.3,4.9,4.9,0,0,1,.444-.555,50.731,50.731,0,0,1-1.131,5.8c-.454,1.922-.931,3.838-1.353,5.766s-.842,3.86-1.167,5.805c-.336,2.009-.607,4.034-.814,6.061-.2,1.965-.338,3.939-.4,5.912s-.051,3.964.011,5.943c.06,1.9-.212,3.834.465,5.7a29.771,29.771,0,0,0,.224-3.914c.149-4.283.016-8.606.571-12.838.707-5.4,1.879-10.75,3.035-16.081a123.311,123.311,0,0,1,5.189-18.828,46.758,46.758,0,0,0,2.631-24.5A58.987,58.987,0,0,0,742.4,72.265c-3.72-6.08-7.485-12.134-11.225-18.2C730.986,53.756,730.84,53.421,730.651,53.053Zm3.046,95.7-.342.022c.122-2.166.268-4.331.36-6.5a129.122,129.122,0,0,1,2.642-19.96c1.594-7.937,3.546-15.8,4.272-23.9a86.624,86.624,0,0,0-.745-20.5c-.488-3.3-1.245-6.555-1.887-9.876a2.415,2.415,0,0,1,.449.4,70.853,70.853,0,0,1,8.885,18.9c2.648,9.434,2.943,18.82-.017,28.237-1.988,6.329-5.173,12.1-8.091,18.014-1.54,3.119-2.781,6.4-4.007,9.657C734.548,145.024,734.194,146.917,733.7,148.758Z" transform="translate(-714.93 -42.887)" fill="#ece1ca" stroke="rgba(0,0,0,0)" stroke-width="1"/>
      </g>
      <g id="Group_60" data-name="Group 60" transform="translate(136.243)">
        <path id="Path_1992" data-name="Path 1992" d="M559.9,58.653a10.649,10.649,0,0,0,2.261-.022c8.419-1.868,16.857-3.658,25.225-5.732A109.034,109.034,0,0,0,599.4,48.986c5.371-2.014,10.632-4.356,16.3-5.414a98.337,98.337,0,0,1,10.176-1.407c6.641-.531,13.317-.683,19.947-1.313,8.392-.8,16.822-1.548,24.915-4.142a103.9,103.9,0,0,0,26.515-12.7c8.593-5.8,17.018-11.841,25.5-17.806,1.846-1.3,1.832-1.381,2.432-2.7-.493-.934-1.148-.349-1.684-.116q-4.267,1.851-8.5,3.777A85,85,0,0,1,696.077,13.4a84.423,84.423,0,0,1-17.914,1.48c-5.416-.1-10.831-.366-16.243-.311-6.465.067-12.93.366-19.392.622a58.19,58.19,0,0,0-18.7,3.9,91.148,91.148,0,0,0-25.878,15.5q-5.088,4.262-10.138,8.573a70.37,70.37,0,0,1-27.44,14.882,3.421,3.421,0,0,0-.514.227Zm137.391-41.2-.1-.236c-.469.157-.94.3-1.4.471-3.535,1.259-7.033,2.631-10.61,3.757a65.791,65.791,0,0,1-16.443,3.2c-3.885.193-7.781.132-11.673.192-5.877.09-11.755.108-17.625.311A74.157,74.157,0,0,0,629,26.019a70.586,70.586,0,0,0-27.682,11.162c-5.62,3.83-11.172,7.761-16.8,11.584-1.592,1.083-3.333,1.946-5.006,2.908l-.227-.358c.155-.119.306-.247.469-.354,5.748-3.692,10.839-8.214,16.01-12.637,7.767-6.641,16.019-12.521,25.475-16.581a56.245,56.245,0,0,1,16.7-4.649c4.134-.406,8.286-.733,12.437-.867,5.144-.168,10.3-.146,15.448-.128,6.21.019,12.429.355,18.625.1a92.207,92.207,0,0,0,13.317-1.738,74.719,74.719,0,0,0,18.284-6.3c.72-.344,1.476-.617,2.217-.923a3.167,3.167,0,0,1-1.221,1.434c-7.4,5.085-14.714,10.317-22.251,15.2a98.812,98.812,0,0,1-25.431,11.785c-8.9,2.666-18.141,3.3-27.33,4.106-5.127.45-10.285.5-15.417.915-3.543.285-7.088.726-10.585,1.362a78.658,78.658,0,0,0-16.684,5.522,77.2,77.2,0,0,1-18.182,5.277,3.815,3.815,0,0,1-.894-.149c1.987-1.207,3.776-2.187,5.452-3.33q7.2-4.907,14.325-9.93A69.813,69.813,0,0,1,636.83,26.311c4.808-.281,9.64-.344,14.457-.258a151.9,151.9,0,0,0,21.358-.668,75.246,75.246,0,0,0,23.339-7.1A12.391,12.391,0,0,0,697.293,17.452Z" transform="translate(-559.863 -2.993)" fill="#ece1ca" stroke="rgba(0,0,0,0)" stroke-width="1"/>
      </g>
    </g>
  </g>
</svg>
