<svg xmlns="http://www.w3.org/2000/svg" width="242.257" height="80" viewBox="0 0 242.257 80">
  <g id="Group_288" data-name="Group 288" transform="translate(-772.743 -7308)">
    <g id="Group_238" data-name="Group 238" transform="translate(637.03 7048.285)">
      <path id="Path_1766" data-name="Path 1766" d="M175.941,291.9v-7.778h-3.7a2.963,2.963,0,0,0-2.965,2.961V297.5a8.856,8.856,0,0,1-.255,2.314,2.4,2.4,0,0,1-.983,1.379,4.723,4.723,0,0,0-1.982,5.776l.534,1.363h-7.361a2.033,2.033,0,0,1-1.529-.623,2.152,2.152,0,0,1-.6-1.553V284.633h-3.656a2.964,2.964,0,0,0-2.965,2.965v18.561a2.123,2.123,0,0,1-.623,1.553,2.056,2.056,0,0,1-1.5.623h-3.814a2.178,2.178,0,0,1-2.18-2.18V284.633h-3.681a2.964,2.964,0,0,0-2.965,2.965v21.081a6.645,6.645,0,0,0,6.645,6.645h5.994a6.963,6.963,0,0,0,3.147-.692,6.651,6.651,0,0,0,2.314-1.9,6.222,6.222,0,0,0,2.269,1.9,6.963,6.963,0,0,0,3.147.692h22.408a9.98,9.98,0,0,0,5.112-1.387,10.3,10.3,0,0,0,3.774-3.774,10.188,10.188,0,0,0,.2-9.918,10.375,10.375,0,0,0-3.948-4.13,9.954,9.954,0,0,0-5.137-1.391,10.252,10.252,0,0,0-3.1.51,10.441,10.441,0,0,0-2.593,1.266m8.211,10.727a3.624,3.624,0,0,1-2.674,1.108h-12.85l9.4-5.553a12.076,12.076,0,0,1,2.059-1.157,3.941,3.941,0,0,1,1.412-.324,3.388,3.388,0,0,1,2.548,1.064,3.563,3.563,0,0,1,1.019,2.544A3.313,3.313,0,0,1,184.152,307.226Z" transform="translate(0 1.255)" fill="#8b061b"/>
      <rect id="Rectangle_54" data-name="Rectangle 54" width="5.925" height="5.971" transform="translate(226.208 288.02)" fill="#8b061b"/>
      <path id="Path_1767" data-name="Path 1767" d="M179.55,300.827a2.123,2.123,0,0,1-.623,1.529,2.011,2.011,0,0,1-1.5.647h-4.445a2.024,2.024,0,0,1-1.525-.623,2.138,2.138,0,0,1-.6-1.553V285.878h-3.612a2.962,2.962,0,0,0-2.961,2.961H161.22a10.511,10.511,0,0,0-5.112,1.274,9.966,9.966,0,0,0-3.729,3.47,9.093,9.093,0,0,0-1.359,5.646,9.651,9.651,0,0,0,1.149,3.936,10.343,10.343,0,0,0,3.94,4.073,9.96,9.96,0,0,0,5.112,1.367,9.175,9.175,0,0,0,5.557-1.759,7.093,7.093,0,0,0,2.613,2.314,7.616,7.616,0,0,0,3.588.833h4.49a8.462,8.462,0,0,0,4.4-1.181,8.761,8.761,0,0,0,4.3-7.568v-9.906h-3.656a2.964,2.964,0,0,0-2.965,2.965Zm-15.273-2.358a3.093,3.093,0,0,1-.882,2.245,2.911,2.911,0,0,1-2.176.9,3.082,3.082,0,0,1-3.147-3.147,2.786,2.786,0,0,1,.9-2.132,3.193,3.193,0,0,1,2.245-.833h3.058Z" transform="translate(46.517 6.587)" fill="#8b061b"/>
      <rect id="Rectangle_55" data-name="Rectangle 55" width="5.925" height="5.925" transform="translate(258.38 283.715)" fill="#8b061b"/>
      <path id="Path_1768" data-name="Path 1768" d="M200.3,297.826a1.668,1.668,0,0,1-.74-.138l-9.95-4.627a14.086,14.086,0,0,0-1.828-.764,6.977,6.977,0,0,0-2.2-.3,9.155,9.155,0,0,0-3.636.764,8.687,8.687,0,0,0-3.123,2.293l-4.259,5.181,2.431,2.14a2.962,2.962,0,0,0,4.158-.239l2.3-2.548a3.234,3.234,0,0,1,.995-.74,2.7,2.7,0,0,1,1.181-.279,4.252,4.252,0,0,1,1.391.372l6.435,3.1-4.494,4.073a8.523,8.523,0,0,1-6.014,2.221h-13.61a1.97,1.97,0,0,1-1.48-.623,2.139,2.139,0,0,1-.6-1.553V284.127h-3.7a2.962,2.962,0,0,0-2.961,2.961v19.487a8.761,8.761,0,0,0,4.3,7.568,8.437,8.437,0,0,0,4.4,1.181h12.684a16.519,16.519,0,0,0,5.739-1.015,14.344,14.344,0,0,0,4.906-3.009l7.5-6.989h5.137v-3.519a2.964,2.964,0,0,0-2.965-2.965Z" transform="translate(75.718 1.255)" fill="#8b061b"/>
    </g>
    <path id="Path_2656" data-name="Path 2656" d="M287.49,282.757c-5.591-5.7-11.181-11.4-16.882-17.1l-2.624-2.626-10.428,10.634,5.251,5.155,5.224-5.329c3.146,3.166,6.246,6.332,9.356,9.5l-8.826,8.218L241.7,265.414l11.372-12.9h30.959l11.379,12.917-9.113,8.819,5.116,5.287,14.16-13.7L287.35,245.157H249.745l-18.229,20.681L248.764,282.4c-2.494,2.6-4.873,5.2-7.139,7.73-1.8,2.011-3.6,4.022-5.486,6.035a17.237,17.237,0,0,0,12.593,28.995h39.386A17.213,17.213,0,0,0,300.33,295.8C296.017,291.456,291.752,287.105,287.49,282.757Zm.628,35.042H248.732a9.88,9.88,0,0,1-7.22-16.613c1.918-2.05,3.757-4.1,5.594-6.151,2.224-2.484,4.547-5.025,6.962-7.546l14.415,13.839,14.069-13.1c4.167,4.252,8.336,8.5,12.556,12.757a9.857,9.857,0,0,1-6.992,16.814Z" transform="translate(709.432 7062.843)" fill="#d0be93"/>
  </g>
</svg>
