<svg version="1.2" xmlns="http://www.w3.org/2000/svg" viewBox="0 0 106 24" width="106" height="24">
	<title>Group 4</title>
	<style>
		.s0 { fill: #8b061b } 
	</style>
	<g id="Group 4">
		<path id="Path 1766" fill-rule="evenodd" class="s0" d="m29.4 10.1c0.5-0.3 1.1-0.6 1.9-0.9 1-0.3 1.9-0.3 2.2-0.3q2 0 3.7 1 1.9 1 2.9 2.9c0.5 0.9 0.8 1.9 0.8 2.9q0.2 2.3-0.9 4.3-1.1 1.7-2.8 2.7-1.7 1-3.7 1h-16.1q-1.3 0-2.3-0.5-1-0.5-1.7-1.3-0.6 0.8-1.6 1.3-1 0.5-2.3 0.5h-4.3c-2.7 0-4.8-2.1-4.8-4.8v-15.2c0-1.2 0.9-2.1 2.1-2.1h2.7v15.5c0 0.9 0.7 1.6 1.6 1.6h2.7q0.6 0 1.1-0.5 0.4-0.4 0.4-1.1v-13.4c0-1.2 1-2.1 2.2-2.1h2.6v15.5q0 0.7 0.5 1.1 0.4 0.5 1.1 0.5h5.3l-0.4-1c-0.6-1.6 0-3.3 1.4-4.2q0.5-0.3 0.7-1 0.2-0.6 0.2-1.6v-7.6c0-1.1 1-2.1 2.2-2.1h2.6v5.6m6.6 9.4q0-1.1-0.7-1.8-0.8-0.8-1.9-0.8-0.4 0-1 0.2-0.6 0.3-1.5 0.9l-6.8 4h9.3c0.7 0 1.5-0.3 2-0.8q0.6-0.7 0.6-1.7z"/>
		<path id="Rectangle 54" class="s0" d="m65.7 3.1h4.3v4.3h-4.3z"/>
		<path id="Path 1767" fill-rule="evenodd" class="s0" d="m65.6 12.4c0-1.2 1-2.1 2.2-2.1h2.6v7.1q0 1.7-0.8 3.2-0.9 1.4-2.3 2.3-1.5 0.8-3.2 0.8h-3.2q-1.5 0-2.6-0.6-1.2-0.6-1.9-1.6-1.7 1.2-4 1.2-2 0-3.7-1-1.8-1-2.9-2.9c-0.4-0.9-0.7-1.9-0.8-2.8q-0.1-2.3 1-4.1 1-1.6 2.7-2.5 1.7-0.9 3.7-0.9h2.2c0-1.2 0.9-2.2 2.1-2.2h2.6v10.8q0 0.7 0.5 1.1 0.4 0.5 1.1 0.5h3.2q0.6 0 1.1-0.5 0.4-0.5 0.4-1.1zm-11 0.9h-2.2q-1 0-1.6 0.6-0.7 0.6-0.7 1.5 0 1 0.7 1.6 0.6 0.7 1.6 0.7 0.9 0 1.6-0.7 0.6-0.6 0.6-1.6z"/>
		<path id="Rectangle 55" class="s0" d="m88.9 0h4.3v4.3h-4.3z"/>
		<path id="Path 1768" class="s0" d="m103.1 11.1c1.2 0 2.2 1 2.2 2.1v2.6h-3.8l-5.4 5q-1.5 1.5-3.5 2.2-2 0.7-4.2 0.7h-7.2-1.9q-1.8 0-3.2-0.8-1.4-0.9-2.3-2.3-0.8-1.5-0.8-3.2v-14.1c0-1.1 1-2.1 2.1-2.1h2.7v15.9q0 0.7 0.5 1.1 0.4 0.5 1 0.5h1.9 7.9q2.7 0 4.4-1.6l3.2-3-4.6-2.2q-0.7-0.3-1-0.3-0.4 0-0.9 0.2-0.4 0.2-0.7 0.6l-1.6 1.8c-0.8 0.9-2.2 1-3 0.2l-1.8-1.6 3.1-3.7q0.9-1.1 2.2-1.7 1.3-0.5 2.7-0.5 0.9 0 1.5 0.2 0.7 0.2 1.4 0.6l7.1 3.3q0.2 0.1 0.6 0.1z"/>
	</g>
</svg>