<svg xmlns="http://www.w3.org/2000/svg" width="55.976" height="60.463" viewBox="0 0 55.976 60.463">
  <path id="Path_1902" data-name="Path 1902" d="M273.818,273.575c-4.226-4.308-8.45-8.617-12.76-12.926l-1.983-1.985-7.881,8.037,3.968,3.9,3.948-4.028c2.378,2.393,4.721,4.786,7.071,7.179l-6.671,6.211-20.3-19.491,8.595-9.749h23.4l8.6,9.762-6.888,6.665,3.866,4,10.7-10.355-13.77-15.629H245.29l-13.777,15.631L244.549,273.3c-1.885,1.967-3.683,3.929-5.4,5.842-1.36,1.52-2.723,3.04-4.146,4.562a13.028,13.028,0,0,0,9.518,21.914h29.767a13.009,13.009,0,0,0,9.231-22.185C280.262,280.149,277.039,276.861,273.818,273.575Zm.474,26.485H244.525a7.468,7.468,0,0,1-5.457-12.556c1.449-1.549,2.84-3.1,4.228-4.649,1.681-1.878,3.436-3.8,5.262-5.7l10.895,10.459,10.634-9.9c3.149,3.214,6.3,6.428,9.49,9.642a7.45,7.45,0,0,1-5.284,12.708Z" transform="translate(-231.506 -245.157)" fill="#d0be93"/>
</svg>
