<svg xmlns="http://www.w3.org/2000/svg" width="100%" height="100%" viewBox="0 0 148.63 148.613">
  <g id="Group_270" data-name="Group 270" transform="translate(-591.154 -739.225)">
    <g id="Group_33" data-name="Group 33" transform="translate(571.68 719.501)">
      <g id="Group_32" data-name="Group 32" transform="translate(19.974 20.224)">
        <g id="Group_31" data-name="Group 31">
          <path id="Path_1858" data-name="Path 1858" d="M236.768,357.09a.992.992,0,0,1,1.423-1.188.987.987,0,0,1,.5.572,1.041,1.041,0,0,1-.657,1.27.983.983,0,0,1-.762-.071A.955.955,0,0,1,236.768,357.09Z" transform="translate(-135.208 -338.386)" fill="#8b061b" stroke="rgba(0,0,0,0)" stroke-miterlimit="10" stroke-width="1"/>
          <path id="Path_1859" data-name="Path 1859" d="M238.683,364.232l7.158-9.728a.159.159,0,0,1,.252-.037l.725.534a.16.16,0,0,1,.041.252l-3.411,4.633a.072.072,0,0,0-.017.078c.014.02.037.027.068,0l6.226-2.672a.249.249,0,0,1,.242.027l.8.592a.146.146,0,0,1,.078.133c-.007.048-.041.082-.106.109l-5.082,2.236c-.051.024-.075.048-.078.075l-1.739,7.519-.027.065c-.058.082-.126.085-.214.02l-.817-.6a.193.193,0,0,1-.071-.231l1.518-6.379c.02-.044,0-.061-.071-.055l-1.9.722c-.017,0-.041.024-.068.065l-2.5,3.39a.16.16,0,0,1-.248.038l-.728-.538A.157.157,0,0,1,238.683,364.232Z" transform="translate(-130.605 -341.634)" fill="#8b061b" stroke="rgba(0,0,0,0)" stroke-miterlimit="10" stroke-width="1"/>
          <path id="Path_1860" data-name="Path 1860" d="M252.681,359.577l.643.637a.158.158,0,0,1,0,.252l-8.479,8.6a.154.154,0,0,1-.252,0l-.643-.637a.156.156,0,0,1,0-.252l3.8-3.856a.064.064,0,0,0,0-.1L245.5,362a.06.06,0,0,0-.1,0l-3.805,3.86a.162.162,0,0,1-.252,0l-.643-.64a.153.153,0,0,1,0-.248l8.479-8.6a.154.154,0,0,1,.252,0l.647.633a.16.16,0,0,1,0,.252l-3.792,3.843a.072.072,0,0,0,0,.105l2.253,2.216a.064.064,0,0,0,.1,0l3.788-3.843A.16.16,0,0,1,252.681,359.577Z" transform="translate(-125.801 -337.095)" fill="#8b061b" stroke="rgba(0,0,0,0)" stroke-miterlimit="10" stroke-width="1"/>
          <path id="Path_1861" data-name="Path 1861" d="M245.711,368.642l1.474-1.7a.051.051,0,0,0,.024-.051.169.169,0,0,0-.024-.065l-1.964-2.543a.151.151,0,0,0-.051-.041.11.11,0,0,0-.058.01l-2.015,1a.175.175,0,0,1-.249-.058l-.551-.718a.147.147,0,0,1,.058-.245l11.192-5.262a.179.179,0,0,1,.245.055l.65.844a.173.173,0,0,1-.007.255l-7.917,9.51-.027.02a.14.14,0,0,1-.225-.027l-.562-.732A.181.181,0,0,1,245.711,368.642Zm.446-4.83,1.716,2.219c.02.034.048.031.085,0l4.663-5.385c.02-.031.027-.054.02-.065s-.031-.01-.065.007l-6.4,3.138C246.143,363.754,246.137,363.785,246.157,363.812Z" transform="translate(-121.918 -330.768)" fill="#8b061b" stroke="rgba(0,0,0,0)" stroke-miterlimit="10" stroke-width="1"/>
          <path id="Path_1862" data-name="Path 1862" d="M257.106,365.254l.439.773a.155.155,0,0,1-.065.242l-10.5,5.98a.157.157,0,0,1-.242-.071l-.517-.905a.192.192,0,0,1,.027-.242l6.266-7.556c.024-.027.027-.048.01-.068s-.041-.021-.072,0l-7.924,4.534a.155.155,0,0,1-.242-.065l-.449-.79a.156.156,0,0,1,.065-.242l10.5-5.977a.158.158,0,0,1,.242.068l.51.892a.2.2,0,0,1-.031.245l-6.266,7.577c-.027.027-.031.051-.01.068s.034.017.068,0l7.948-4.527A.155.155,0,0,1,257.106,365.254Z" transform="translate(-118.18 -326.215)" fill="#8b061b" stroke="rgba(0,0,0,0)" stroke-miterlimit="10" stroke-width="1"/>
          <path id="Path_1863" data-name="Path 1863" d="M257.591,369.144l-1.515-3.833a.068.068,0,0,0-.1-.044l-4.095,1.624a.058.058,0,0,0-.037.088l.95,2.41a.16.16,0,0,1-.1.235l-.711.279a.158.158,0,0,1-.231-.1l-.953-2.41a.06.06,0,0,0-.089-.038l-4.112,1.624a.063.063,0,0,0-.044.092l1.515,3.833a.158.158,0,0,1-.1.231l-.691.272a.158.158,0,0,1-.231-.1l-1.937-4.908a.155.155,0,0,1,.1-.228l11.236-4.438a.159.159,0,0,1,.231.1l1.937,4.9a.154.154,0,0,1-.1.228l-.691.276A.157.157,0,0,1,257.591,369.144Z" transform="translate(-115.09 -319.295)" fill="#8b061b" stroke="rgba(0,0,0,0)" stroke-miterlimit="10" stroke-width="1"/>
          <path id="Path_1864" data-name="Path 1864" d="M258.83,372.361l-.722.177a.156.156,0,0,1-.218-.129l-.565-2.274a.063.063,0,0,0-.085-.051l-10.756,2.679a.155.155,0,0,1-.214-.129l-.221-.882a.157.157,0,0,1,.133-.215l10.753-2.679a.061.061,0,0,0,.051-.085l-.531-2.138a.151.151,0,0,1,.129-.211l.725-.18a.154.154,0,0,1,.215.126l1.436,5.773A.16.16,0,0,1,258.83,372.361Z" transform="translate(-112.814 -313.24)" fill="#8b061b" stroke="rgba(0,0,0,0)" stroke-miterlimit="10" stroke-width="1"/>
          <path id="Path_1865" data-name="Path 1865" d="M247.161,374.819l2.138-.687a.084.084,0,0,0,.048-.034.08.08,0,0,0,.01-.061l-.361-3.2a.1.1,0,0,0-.027-.058.05.05,0,0,0-.055-.024l-2.24-.191c-.106,0-.167-.058-.18-.177l-.1-.9a.148.148,0,0,1,.038-.136.15.15,0,0,1,.139-.044l12.3,1.276a.188.188,0,0,1,.18.177l.123,1.059a.176.176,0,0,1-.14.214l-11.7,4.047-.034.007a.14.14,0,0,1-.174-.14l-.105-.919A.181.181,0,0,1,247.161,374.819Zm2.88-3.9.316,2.784c.007.037.031.054.078.048l6.774-2.206c.034-.014.051-.027.051-.038s-.024-.024-.058-.027l-7.1-.626C250.057,370.86,250.033,370.88,250.04,370.918Z" transform="translate(-111.975 -305.847)" fill="#8b061b" stroke="rgba(0,0,0,0)" stroke-miterlimit="10" stroke-width="1"/>
          <path id="Path_1866" data-name="Path 1866" d="M246.853,371.937l12.077.17a.158.158,0,0,1,.174.184l-.01.9a.161.161,0,0,1-.18.177l-11.083-.16c-.048,0-.072.024-.072.071l-.058,4.068a.157.157,0,0,1-.18.174l-.745-.01a.158.158,0,0,1-.177-.181l.078-5.221A.152.152,0,0,1,246.853,371.937Z" transform="translate(-111.474 -299.531)" fill="#8b061b" stroke="rgba(0,0,0,0)" stroke-miterlimit="10" stroke-width="1"/>
          <path id="Path_1867" data-name="Path 1867" d="M246.618,379.385l2.24-.126a.08.08,0,0,0,.058-.02.1.1,0,0,0,.027-.058l.456-3.186a.085.085,0,0,0-.01-.058.056.056,0,0,0-.048-.038l-2.117-.752a.168.168,0,0,1-.129-.214l.126-.9a.186.186,0,0,1,.071-.126.173.173,0,0,1,.143,0l11.58,4.35a.183.183,0,0,1,.129.218l-.15,1.052c-.017.119-.078.174-.184.174l-12.339.957-.037-.007a.138.138,0,0,1-.136-.177l.133-.916A.183.183,0,0,1,246.618,379.385Zm3.775-3.047-.4,2.774c0,.038.017.058.065.068l7.111-.419c.037-.007.055-.017.058-.027s-.014-.027-.048-.044l-6.709-2.4C250.42,376.287,250.4,376.3,250.392,376.338Z" transform="translate(-112.201 -294.834)" fill="#8b061b" stroke="rgba(0,0,0,0)" stroke-miterlimit="10" stroke-width="1"/>
          <path id="Path_1868" data-name="Path 1868" d="M246.161,381.541l2.243.16a.059.059,0,0,0,.058-.01.132.132,0,0,0,.034-.054l.858-3.1a.125.125,0,0,0,0-.061.06.06,0,0,0-.044-.041l-2-1.018a.165.165,0,0,1-.1-.228l.238-.875a.164.164,0,0,1,.092-.112.147.147,0,0,1,.143.014l10.93,5.79a.182.182,0,0,1,.1.228l-.286,1.028c-.034.112-.1.163-.208.146l-12.359-.623-.034-.007a.146.146,0,0,1-.112-.2l.248-.888A.183.183,0,0,1,246.161,381.541ZM250.293,379l-.745,2.706c-.01.034.007.061.051.075l7.107.49c.037,0,.058-.01.061-.02s-.014-.027-.044-.048l-6.348-3.234C250.33,378.954,250.3,378.964,250.293,379Z" transform="translate(-113.634 -289.314)" fill="#8b061b" stroke="rgba(0,0,0,0)" stroke-miterlimit="10" stroke-width="1"/>
          <path id="Path_1869" data-name="Path 1869" d="M245.489,380.022a1.063,1.063,0,0,1,1.29.616.961.961,0,0,1-.061.769.978.978,0,0,1-.555.521.956.956,0,0,1-.769-.051.986.986,0,0,1-.521-.565.964.964,0,0,1,.051-.762A.944.944,0,0,1,245.489,380.022Z" transform="translate(-115.753 -280.219)" fill="#8b061b" stroke="rgba(0,0,0,0)" stroke-miterlimit="10" stroke-width="1"/>
          <path id="Path_1870" data-name="Path 1870" d="M246.4,382.353l9.772,7.1a.154.154,0,0,1,.037.245l-.531.732a.157.157,0,0,1-.248.041l-4.656-3.383a.079.079,0,0,0-.075-.014c-.027.01-.027.034,0,.065l2.713,6.209a.273.273,0,0,1-.024.249l-.585.8c-.044.054-.085.082-.136.075s-.085-.034-.109-.1l-2.267-5.068c-.024-.048-.051-.075-.078-.078l-7.529-1.7-.065-.027c-.078-.054-.085-.126-.02-.211l.592-.817a.2.2,0,0,1,.231-.078l6.389,1.481c.044.02.065-.007.051-.075l-.732-1.889c0-.017-.024-.038-.065-.068l-3.4-2.471a.162.162,0,0,1-.037-.252l.531-.732A.158.158,0,0,1,246.4,382.353Z" transform="translate(-121.194 -274.599)" fill="#8b061b" stroke="rgba(0,0,0,0)" stroke-miterlimit="10" stroke-width="1"/>
          <path id="Path_1871" data-name="Path 1871" d="M250.564,396.3l-.633.647a.153.153,0,0,1-.248.007l-8.666-8.418a.157.157,0,0,1-.007-.248l.633-.65a.154.154,0,0,1,.252,0l3.887,3.775a.063.063,0,0,0,.1,0l2.2-2.267a.064.064,0,0,0,0-.1l-3.884-3.771a.159.159,0,0,1,0-.255l.63-.647a.158.158,0,0,1,.252,0l8.663,8.414a.156.156,0,0,1,0,.252l-.63.647a.153.153,0,0,1-.248,0l-3.874-3.758q-.056-.056-.1,0l-2.2,2.267a.064.064,0,0,0,0,.1l3.874,3.761A.158.158,0,0,1,250.564,396.3Z" transform="translate(-125.046 -269.82)" fill="#8b061b" stroke="rgba(0,0,0,0)" stroke-miterlimit="10" stroke-width="1"/>
          <path id="Path_1872" data-name="Path 1872" d="M239.965,389.424l1.709,1.464a.053.053,0,0,0,.051.027.142.142,0,0,0,.061-.027l2.532-1.978a.1.1,0,0,0,.041-.051.063.063,0,0,0-.014-.058l-1-2.008a.17.17,0,0,1,.054-.245l.715-.558a.14.14,0,0,1,.136-.041.152.152,0,0,1,.109.092L249.69,397.2a.187.187,0,0,1-.058.248l-.837.653a.17.17,0,0,1-.255-.007l-9.558-7.856-.024-.027a.145.145,0,0,1,.031-.228l.725-.568A.181.181,0,0,1,239.965,389.424Zm4.837.419-2.213,1.729c-.031.02-.031.048,0,.089L248,396.286c.031.024.051.027.061.021s.007-.027,0-.065l-3.179-6.375C244.86,389.829,244.829,389.822,244.8,389.842Z" transform="translate(-129.94 -265.862)" fill="#8b061b" stroke="rgba(0,0,0,0)" stroke-miterlimit="10" stroke-width="1"/>
          <path id="Path_1873" data-name="Path 1873" d="M243.952,400.781l-.769.446a.158.158,0,0,1-.242-.068l-6.059-10.45a.154.154,0,0,1,.065-.238l.909-.527a.2.2,0,0,1,.238.024l7.6,6.208c.031.024.051.027.071.01s.017-.037,0-.071l-4.592-7.89a.157.157,0,0,1,.065-.242l.786-.453a.153.153,0,0,1,.238.065l6.059,10.446a.16.16,0,0,1-.065.245l-.892.518a.193.193,0,0,1-.242-.027l-7.624-6.212c-.027-.027-.051-.031-.068-.014s-.017.041,0,.072l4.588,7.917A.159.159,0,0,1,243.952,400.781Z" transform="translate(-134.904 -262.127)" fill="#8b061b" stroke="rgba(0,0,0,0)" stroke-miterlimit="10" stroke-width="1"/>
          <path id="Path_1874" data-name="Path 1874" d="M238.849,401.3l3.819-1.542a.063.063,0,0,0,.041-.092l-1.651-4.085a.063.063,0,0,0-.092-.037l-2.407.97a.156.156,0,0,1-.228-.1l-.286-.7a.159.159,0,0,1,.1-.235l2.406-.97a.065.065,0,0,0,.041-.092l-1.658-4.1a.061.061,0,0,0-.092-.041l-3.822,1.542a.153.153,0,0,1-.228-.1l-.279-.694a.157.157,0,0,1,.1-.231l4.891-1.974a.157.157,0,0,1,.231.1l4.52,11.2a.156.156,0,0,1-.1.231l-4.895,1.974a.154.154,0,0,1-.228-.1l-.279-.691A.159.159,0,0,1,238.849,401.3Z" transform="translate(-140.581 -258.997)" fill="#8b061b" stroke="rgba(0,0,0,0)" stroke-miterlimit="10" stroke-width="1"/>
          <path id="Path_1875" data-name="Path 1875" d="M233.412,402.561l-.184-.722a.157.157,0,0,1,.126-.218l2.27-.579a.065.065,0,0,0,.051-.088l-2.761-10.736a.159.159,0,0,1,.126-.218l.878-.225a.16.16,0,0,1,.218.13l2.761,10.732a.061.061,0,0,0,.085.051l2.131-.548a.157.157,0,0,1,.218.129l.184.722a.152.152,0,0,1-.123.214l-5.766,1.484A.157.157,0,0,1,233.412,402.561Z" transform="translate(-144.388 -256.67)" fill="#8b061b" stroke="rgba(0,0,0,0)" stroke-miterlimit="10" stroke-width="1"/>
          <path id="Path_1876" data-name="Path 1876" d="M231.006,390.94l.7,2.134a.062.062,0,0,0,.034.044.087.087,0,0,0,.065.014l3.189-.385a.113.113,0,0,0,.061-.027.065.065,0,0,0,.02-.054l.177-2.24a.169.169,0,0,1,.177-.18l.9-.112a.155.155,0,0,1,.14.041.144.144,0,0,1,.044.136l-1.2,12.308a.182.182,0,0,1-.177.184l-1.055.126a.169.169,0,0,1-.214-.133l-4.122-11.672-.007-.031a.146.146,0,0,1,.143-.18l.916-.112A.18.18,0,0,1,231.006,390.94Zm3.921,2.856-2.784.333c-.034,0-.051.031-.044.078l2.243,6.757c.017.034.031.054.044.051s.02-.02.027-.058l.579-7.1C234.985,393.809,234.964,393.789,234.927,393.8Z" transform="translate(-152.01 -255.795)" fill="#8b061b" stroke="rgba(0,0,0,0)" stroke-miterlimit="10" stroke-width="1"/>
          <path id="Path_1877" data-name="Path 1877" d="M233.048,390.585l-.1,12.08a.157.157,0,0,1-.177.177l-.909-.007a.158.158,0,0,1-.174-.184l.089-11.083c0-.044-.024-.068-.075-.068l-4.064-.034a.157.157,0,0,1-.177-.177l.007-.749a.154.154,0,0,1,.18-.174l5.221.037A.159.159,0,0,1,233.048,390.585Z" transform="translate(-157.473 -255.229)" fill="#8b061b" stroke="rgba(0,0,0,0)" stroke-miterlimit="10" stroke-width="1"/>
          <path id="Path_1878" data-name="Path 1878" d="M226.431,390.39l.143,2.246a.062.062,0,0,0,.02.055.116.116,0,0,0,.058.024l3.186.439a.18.18,0,0,0,.061-.01.062.062,0,0,0,.034-.051l.739-2.124a.171.171,0,0,1,.218-.129l.9.123a.168.168,0,0,1,.126.071.166.166,0,0,1,.007.146l-4.279,11.6a.181.181,0,0,1-.214.129l-1.055-.143q-.179-.02-.174-.184l-1.035-12.335,0-.034a.143.143,0,0,1,.18-.136l.912.129A.176.176,0,0,1,226.431,390.39Zm3.07,3.754-2.778-.378c-.037,0-.054.017-.065.061l.463,7.111c.007.037.017.054.027.058s.024-.017.041-.051l2.355-6.723C229.555,394.179,229.538,394.152,229.5,394.145Z" transform="translate(-163.004 -255.923)" fill="#8b061b" stroke="rgba(0,0,0,0)" stroke-miterlimit="10" stroke-width="1"/>
          <path id="Path_1879" data-name="Path 1879" d="M224.543,389.952,224.4,392.2a.061.061,0,0,0,.014.058.1.1,0,0,0,.055.031l3.1.841a.085.085,0,0,0,.065,0,.047.047,0,0,0,.037-.041l1-2.015a.166.166,0,0,1,.231-.1l.871.238a.153.153,0,0,1,.116.082.161.161,0,0,1-.01.146L224.166,402.4a.193.193,0,0,1-.235.106l-1.028-.279a.175.175,0,0,1-.15-.208l.548-12.366.01-.031c.024-.105.089-.139.194-.112l.892.242A.183.183,0,0,1,224.543,389.952Zm2.57,4.115-2.709-.732c-.034-.007-.058.01-.071.054l-.449,7.111c0,.037.01.058.02.061s.027-.01.048-.044l3.193-6.365C227.154,394.1,227.147,394.077,227.113,394.067Z" transform="translate(-168.796 -257.319)" fill="#8b061b" stroke="rgba(0,0,0,0)" stroke-miterlimit="10" stroke-width="1"/>
          <path id="Path_1880" data-name="Path 1880" d="M222.457,389.306a.982.982,0,0,1-.054.762.945.945,0,0,1-1.321.476,1,1,0,0,1,.078-1.845,1.043,1.043,0,0,1,1.3.606Z" transform="translate(-174.221 -259.379)" fill="#8b061b" stroke="rgba(0,0,0,0)" stroke-miterlimit="10" stroke-width="1"/>
          <path id="Path_1881" data-name="Path 1881" d="M227.251,390.213l-7.022,9.83a.158.158,0,0,1-.248.037l-.735-.528a.157.157,0,0,1-.044-.249l3.346-4.68a.069.069,0,0,0,.014-.078c-.014-.021-.034-.021-.065,0l-6.188,2.764a.258.258,0,0,1-.242-.024l-.81-.579a.147.147,0,0,1-.082-.133.15.15,0,0,1,.106-.112l5.048-2.308c.051-.024.075-.048.078-.071l1.637-7.546.027-.068c.051-.075.126-.085.211-.02l.824.585a.2.2,0,0,1,.075.231l-1.43,6.4c-.017.041.01.061.071.048l1.889-.742c.017,0,.037-.024.068-.065l2.444-3.428a.163.163,0,0,1,.248-.041l.735.531A.154.154,0,0,1,227.251,390.213Z" transform="translate(-187.011 -264.759)" fill="#8b061b" stroke="rgba(0,0,0,0)" stroke-miterlimit="10" stroke-width="1"/>
          <path id="Path_1882" data-name="Path 1882" d="M213.73,394.485l-.653-.626a.156.156,0,0,1-.007-.252l8.346-8.727a.156.156,0,0,1,.252-.007l.657.626a.155.155,0,0,1,0,.249l-3.744,3.918c-.034.034-.031.064,0,.1l2.284,2.189a.064.064,0,0,0,.1,0l3.748-3.918a.159.159,0,0,1,.248-.007l.654.63a.151.151,0,0,1,.007.249l-8.346,8.734a.16.16,0,0,1-.252,0l-.654-.626a.156.156,0,0,1,0-.252l3.731-3.9a.062.062,0,0,0,0-.1l-2.284-2.189a.071.071,0,0,0-.1,0l-3.731,3.9A.158.158,0,0,1,213.73,394.485Z" transform="translate(-192.215 -268.581)" fill="#8b061b" stroke="rgba(0,0,0,0)" stroke-miterlimit="10" stroke-width="1"/>
          <path id="Path_1883" data-name="Path 1883" d="M220.162,383.832l-1.447,1.719a.055.055,0,0,0-.027.055.093.093,0,0,0,.027.058l1.995,2.522a.135.135,0,0,0,.051.034.059.059,0,0,0,.058-.01l2-1.018a.167.167,0,0,1,.245.051l.562.711a.155.155,0,0,1,.041.136.143.143,0,0,1-.1.109l-11.117,5.416a.178.178,0,0,1-.245-.054l-.664-.834a.173.173,0,0,1,0-.255l7.788-9.616.027-.024a.144.144,0,0,1,.225.027l.572.725A.174.174,0,0,1,220.162,383.832Zm-.381,4.84-1.743-2.2c-.02-.027-.051-.027-.089,0l-4.588,5.449c-.02.031-.027.055-.017.061s.024.01.061,0l6.355-3.224C219.8,388.726,219.8,388.7,219.781,388.672Z" transform="translate(-195.852 -273.446)" fill="#8b061b" stroke="rgba(0,0,0,0)" stroke-miterlimit="10" stroke-width="1"/>
          <path id="Path_1884" data-name="Path 1884" d="M209.93,387.868l-.449-.769a.158.158,0,0,1,.065-.242l10.412-6.117a.161.161,0,0,1,.245.065l.531.9a.2.2,0,0,1-.027.245l-6.161,7.635c-.024.034-.027.055-.01.072a.061.061,0,0,0,.072,0l7.863-4.639a.157.157,0,0,1,.242.065l.46.779a.153.153,0,0,1-.065.242l-10.412,6.12a.155.155,0,0,1-.242-.061l-.524-.892a.2.2,0,0,1,.024-.238l6.171-7.662c.024-.027.027-.051.01-.068s-.041-.017-.071,0l-7.887,4.636A.161.161,0,0,1,209.93,387.868Z" transform="translate(-200.774 -278.446)" fill="#8b061b" stroke="rgba(0,0,0,0)" stroke-miterlimit="10" stroke-width="1"/>
          <path id="Path_1885" data-name="Path 1885" d="M209.243,382.815l1.569,3.809a.064.064,0,0,0,.1.037l4.071-1.678a.065.065,0,0,0,.041-.092l-.99-2.4a.154.154,0,0,1,.1-.228l.7-.293a.157.157,0,0,1,.235.1l.987,2.4a.067.067,0,0,0,.1.037l4.085-1.685a.067.067,0,0,0,.041-.1l-1.569-3.805a.157.157,0,0,1,.1-.235l.691-.286a.154.154,0,0,1,.228.1l2.012,4.874a.158.158,0,0,1-.1.235l-11.164,4.6a.157.157,0,0,1-.235-.1l-2.012-4.878a.161.161,0,0,1,.1-.231l.691-.286A.159.159,0,0,1,209.243,382.815Z" transform="translate(-203.763 -284.05)" fill="#8b061b" stroke="rgba(0,0,0,0)" stroke-miterlimit="10" stroke-width="1"/>
          <path id="Path_1886" data-name="Path 1886" d="M207.526,377.352l.718-.191a.159.159,0,0,1,.221.126l.6,2.267a.06.06,0,0,0,.085.051l10.719-2.822a.156.156,0,0,1,.218.123l.231.878a.16.16,0,0,1-.126.218l-10.719,2.825c-.048.01-.061.041-.051.088l.562,2.127a.16.16,0,0,1-.126.218l-.722.187a.156.156,0,0,1-.218-.126l-1.518-5.756A.158.158,0,0,1,207.526,377.352Z" transform="translate(-205.725 -287.907)" fill="#8b061b" stroke="rgba(0,0,0,0)" stroke-miterlimit="10" stroke-width="1"/>
          <path id="Path_1887" data-name="Path 1887" d="M219.026,374.905l-2.131.718a.075.075,0,0,0-.048.038.1.1,0,0,0-.01.065l.408,3.186a.114.114,0,0,0,.027.061.064.064,0,0,0,.058.021l2.236.16a.165.165,0,0,1,.184.173l.116.9a.174.174,0,0,1-.034.139.183.183,0,0,1-.14.048L207.375,379.3a.191.191,0,0,1-.184-.174l-.133-1.059a.163.163,0,0,1,.133-.211l11.638-4.214.034-.007a.144.144,0,0,1,.18.14l.116.919A.179.179,0,0,1,219.026,374.905ZM216.2,378.85l-.357-2.784c0-.037-.031-.051-.078-.044l-6.743,2.3c-.031.013-.048.027-.048.041s.02.024.058.031l7.1.521C216.184,378.9,216.2,378.884,216.2,378.85Z" transform="translate(-206.527 -295.453)" fill="#8b061b" stroke="rgba(0,0,0,0)" stroke-miterlimit="10" stroke-width="1"/>
          <path id="Path_1888" data-name="Path 1888" d="M219.154,376.939l-12.077,0a.157.157,0,0,1-.177-.173l0-.909a.158.158,0,0,1,.177-.18l11.083.007c.048,0,.068-.024.068-.072l0-4.064a.158.158,0,0,1,.177-.18l.745,0c.122,0,.18.055.18.177l0,5.221C219.334,376.881,219.276,376.939,219.154,376.939Z" transform="translate(-206.9 -300.908)" fill="#8b061b" stroke="rgba(0,0,0,0)" stroke-miterlimit="10" stroke-width="1"/>
          <path id="Path_1889" data-name="Path 1889" d="M219.573,370.334l-2.243.16a.056.056,0,0,0-.054.02.114.114,0,0,0-.027.058l-.408,3.189a.113.113,0,0,0,.007.061.056.056,0,0,0,.051.034l2.127.722a.171.171,0,0,1,.133.218l-.112.9a.162.162,0,0,1-.072.126.156.156,0,0,1-.146.007l-11.638-4.183a.18.18,0,0,1-.129-.218l.133-1.055a.174.174,0,0,1,.184-.174l12.322-1.134.037,0a.146.146,0,0,1,.14.184l-.119.912A.179.179,0,0,1,219.573,370.334Zm-3.731,3.1.357-2.781c.007-.037-.017-.058-.061-.065l-7.107.517c-.037.007-.054.017-.054.027s.014.024.044.044l6.743,2.3C215.812,373.486,215.836,373.469,215.842,373.435Z" transform="translate(-206.523 -306.444)" fill="#8b061b" stroke="rgba(0,0,0,0)" stroke-miterlimit="10" stroke-width="1"/>
          <path id="Path_1890" data-name="Path 1890" d="M220.132,368.358l-2.243-.126a.056.056,0,0,0-.058.01.1.1,0,0,0-.031.054l-.824,3.108a.137.137,0,0,0,0,.065.06.06,0,0,0,.044.041l2.018.991a.17.17,0,0,1,.1.231l-.228.875a.166.166,0,0,1-.089.116.168.168,0,0,1-.143-.014l-11-5.65a.182.182,0,0,1-.1-.228l.272-1.031c.031-.116.1-.163.2-.15l12.369.466.034.01a.139.139,0,0,1,.112.194l-.235.892A.177.177,0,0,1,220.132,368.358Zm-4.1,2.6.715-2.716c.007-.037-.01-.058-.058-.071l-7.111-.405c-.037,0-.058.014-.058.02s.007.031.041.051l6.389,3.148C216,371,216.024,370.989,216.034,370.959Z" transform="translate(-205.281 -312.246)" fill="#8b061b" stroke="rgba(0,0,0,0)" stroke-miterlimit="10" stroke-width="1"/>
          <path id="Path_1891" data-name="Path 1891" d="M213,366.319a.981.981,0,0,1-.763-.048.95.95,0,0,1-.487-1.317,1.006,1.006,0,0,1,1.848.065.971.971,0,0,1-.041.766A.937.937,0,0,1,213,366.319Z" transform="translate(-195.49 -317.744)" fill="#8b061b" stroke="rgba(0,0,0,0)" stroke-miterlimit="10" stroke-width="1"/>
          <path id="Path_1892" data-name="Path 1892" d="M220.375,371.077l-9.868-6.961a.161.161,0,0,1-.044-.252l.521-.735a.158.158,0,0,1,.248-.048l4.7,3.322a.094.094,0,0,0,.078.01c.024-.014.024-.034,0-.065l-2.8-6.171a.248.248,0,0,1,.024-.245l.572-.813a.15.15,0,0,1,.133-.078q.066.005.112.1l2.335,5.034c.024.051.051.075.078.078l7.553,1.59.068.024a.137.137,0,0,1,.024.214l-.585.827a.2.2,0,0,1-.228.078l-6.409-1.392c-.044-.021-.061,0-.051.075l.759,1.882a.163.163,0,0,0,.061.065l3.441,2.427a.156.156,0,0,1,.044.245l-.524.742A.159.159,0,0,1,220.375,371.077Z" transform="translate(-198.437 -330.531)" fill="#8b061b" stroke="rgba(0,0,0,0)" stroke-miterlimit="10" stroke-width="1"/>
          <path id="Path_1893" data-name="Path 1893" d="M215.437,357.589l.623-.664a.162.162,0,0,1,.252-.007l8.778,8.3a.162.162,0,0,1,.01.252l-.626.657a.151.151,0,0,1-.248.007l-3.938-3.717c-.037-.034-.071-.034-.1,0l-2.175,2.294a.069.069,0,0,0,0,.105l3.938,3.717a.154.154,0,0,1,.007.252l-.62.657a.161.161,0,0,1-.255.007l-8.778-8.288a.162.162,0,0,1-.007-.255l.623-.66a.16.16,0,0,1,.252,0l3.925,3.707a.064.064,0,0,0,.1,0l2.168-2.3a.056.056,0,0,0,0-.1l-3.925-3.71A.157.157,0,0,1,215.437,357.589Z" transform="translate(-194.057 -335.768)" fill="#8b061b" stroke="rgba(0,0,0,0)" stroke-miterlimit="10" stroke-width="1"/>
          <path id="Path_1894" data-name="Path 1894" d="M224.689,363.957l-1.726-1.436a.068.068,0,0,0-.054-.024.123.123,0,0,0-.058.024l-2.505,2.015a.112.112,0,0,0-.037.055.059.059,0,0,0,.01.058l1.038,1.995a.174.174,0,0,1-.051.249l-.708.568a.166.166,0,0,1-.136.038.151.151,0,0,1-.109-.092l-5.5-11.079a.182.182,0,0,1,.051-.245l.83-.667a.17.17,0,0,1,.255,0l9.677,7.713.021.027a.136.136,0,0,1-.024.221l-.722.582A.178.178,0,0,1,224.689,363.957Zm-4.837-.344,2.185-1.763c.027-.02.027-.051,0-.085l-5.484-4.548q-.046-.031-.061-.02c-.01.007-.007.031,0,.065l3.274,6.328C219.8,363.627,219.821,363.633,219.852,363.613Z" transform="translate(-187.849 -339.385)" fill="#8b061b" stroke="rgba(0,0,0,0)" stroke-miterlimit="10" stroke-width="1"/>
          <path id="Path_1895" data-name="Path 1895" d="M221.053,353.776l.766-.456a.159.159,0,0,1,.242.061l6.195,10.368a.157.157,0,0,1-.061.245l-.9.534a.192.192,0,0,1-.242-.02l-7.682-6.1c-.031-.024-.051-.027-.068-.01s-.017.041,0,.068l4.7,7.829a.154.154,0,0,1-.061.242l-.779.466a.156.156,0,0,1-.242-.061l-6.195-10.368a.154.154,0,0,1,.058-.242l.885-.531a.2.2,0,0,1,.242.024l7.706,6.113c.031.024.055.024.068.01a.056.056,0,0,0,0-.071L221,354.021A.159.159,0,0,1,221.053,353.776Z" transform="translate(-183.363 -344.361)" fill="#8b061b" stroke="rgba(0,0,0,0)" stroke-miterlimit="10" stroke-width="1"/>
          <path id="Path_1896" data-name="Path 1896" d="M224.943,353.049l-3.8,1.593a.06.06,0,0,0-.037.092l1.705,4.061a.057.057,0,0,0,.088.037l2.393-1a.157.157,0,0,1,.231.1l.3.7a.159.159,0,0,1-.1.235l-2.389,1a.063.063,0,0,0-.041.092l1.712,4.078a.061.061,0,0,0,.092.037l3.8-1.593a.157.157,0,0,1,.231.1l.289.684a.155.155,0,0,1-.1.232l-4.867,2.042a.154.154,0,0,1-.231-.092l-4.67-11.141a.157.157,0,0,1,.1-.231l4.861-2.042a.158.158,0,0,1,.235.1l.289.691A.158.158,0,0,1,224.943,353.049Z" transform="translate(-176.52 -347.43)" fill="#8b061b" stroke="rgba(0,0,0,0)" stroke-miterlimit="10" stroke-width="1"/>
          <path id="Path_1897" data-name="Path 1897" d="M228.131,351.319l.194.722a.152.152,0,0,1-.126.214l-2.26.616a.064.064,0,0,0-.051.089l2.907,10.695a.161.161,0,0,1-.126.221l-.871.235a.155.155,0,0,1-.218-.123l-2.907-10.7a.062.062,0,0,0-.085-.048l-2.127.575a.159.159,0,0,1-.221-.126l-.194-.722a.156.156,0,0,1,.126-.214l5.742-1.559A.156.156,0,0,1,228.131,351.319Z" transform="translate(-170.518 -349.413)" fill="#8b061b" stroke="rgba(0,0,0,0)" stroke-miterlimit="10" stroke-width="1"/>
          <path id="Path_1898" data-name="Path 1898" d="M230.7,362.783l-.735-2.124a.064.064,0,0,0-.034-.048.166.166,0,0,0-.061-.01l-3.189.429a.176.176,0,0,0-.058.024.068.068,0,0,0-.02.058l-.146,2.24c0,.109-.055.17-.174.187l-.9.119a.165.165,0,0,1-.14-.034.161.161,0,0,1-.041-.136l1.031-12.325a.178.178,0,0,1,.17-.184l1.059-.143a.167.167,0,0,1,.214.133l4.282,11.61.007.034a.139.139,0,0,1-.136.177l-.916.126A.179.179,0,0,1,230.7,362.783Zm-3.962-2.8,2.781-.374c.037,0,.051-.027.044-.075L227.22,352.8c-.014-.034-.027-.051-.041-.048s-.024.02-.031.058l-.48,7.1C226.675,359.965,226.7,359.985,226.733,359.981Z" transform="translate(-162.919 -350.264)" fill="#8b061b" stroke="rgba(0,0,0,0)" stroke-miterlimit="10" stroke-width="1"/>
          <path id="Path_1899" data-name="Path 1899" d="M227.864,362.926l-.071-12.08a.158.158,0,0,1,.177-.177l.905,0a.154.154,0,0,1,.18.174l.065,11.083a.067.067,0,0,0,.071.075l4.068-.027a.158.158,0,0,1,.177.18l.007.742a.162.162,0,0,1-.18.18l-5.218.031A.159.159,0,0,1,227.864,362.926Z" transform="translate(-156.677 -350.665)" fill="#8b061b" stroke="rgba(0,0,0,0)" stroke-miterlimit="10" stroke-width="1"/>
          <path id="Path_1900" data-name="Path 1900" d="M235.272,363.313l-.174-2.24a.06.06,0,0,0-.02-.058.111.111,0,0,0-.058-.024l-3.193-.392a.123.123,0,0,0-.061.01.056.056,0,0,0-.034.051l-.711,2.134a.165.165,0,0,1-.211.133l-.9-.109a.166.166,0,0,1-.126-.068.162.162,0,0,1-.01-.15l4.115-11.661a.184.184,0,0,1,.214-.136l1.055.129c.119.017.177.078.177.184l1.208,12.315,0,.037a.142.142,0,0,1-.177.14l-.919-.112A.183.183,0,0,1,235.272,363.313Zm-3.125-3.71,2.788.344c.034,0,.055-.02.061-.068l-.562-7.1c-.01-.037-.02-.055-.031-.055s-.024.014-.041.044l-2.26,6.757C232.1,359.572,232.114,359.6,232.148,359.6Z" transform="translate(-151.944 -350.337)" fill="#8b061b" stroke="rgba(0,0,0,0)" stroke-miterlimit="10" stroke-width="1"/>
          <path id="Path_1901" data-name="Path 1901" d="M237.439,363.856l.116-2.243a.07.07,0,0,0-.014-.061.144.144,0,0,0-.055-.031l-3.118-.793a.105.105,0,0,0-.065,0,.052.052,0,0,0-.034.048l-.977,2.022a.171.171,0,0,1-.228.109l-.878-.225a.157.157,0,0,1-.116-.085.145.145,0,0,1,.01-.143l5.565-11.046a.182.182,0,0,1,.228-.109l1.031.265c.116.027.167.1.15.2l-.368,12.373-.007.034a.14.14,0,0,1-.194.112l-.9-.228A.182.182,0,0,1,237.439,363.856Zm-2.624-4.078,2.72.694c.034.01.058-.01.068-.058l.347-7.117c0-.034-.01-.055-.02-.058s-.027.014-.048.041l-3.1,6.413C234.767,359.741,234.78,359.771,234.815,359.778Z" transform="translate(-146.428 -349.158)" fill="#8b061b" stroke="rgba(0,0,0,0)" stroke-miterlimit="10" stroke-width="1"/>
        </g>
      </g>
    </g>
  </g>
</svg>
