<svg xmlns="http://www.w3.org/2000/svg" width="170.505" height="170.505" viewBox="0 0 170.505 170.505">
  <path id="Path_1993" data-name="Path 1993" d="M365.107,209.456l-40.789,4.4a4.45,4.45,0,0,0-2.989,7.214l25.728,31.968-31.968-25.728a4.45,4.45,0,0,0-7.214,2.989l-4.4,40.789-4.4-40.789a4.45,4.45,0,0,0-7.214-2.989L259.9,253.034l25.728-31.966a4.45,4.45,0,0,0-2.989-7.214l-40.789-4.4,40.789-4.4a4.45,4.45,0,0,0,2.989-7.214L259.9,165.877,291.866,191.6a4.45,4.45,0,0,0,7.214-2.989l4.4-40.789,4.4,40.789a4.45,4.45,0,0,0,7.214,2.989l31.968-25.726-25.728,31.966a4.45,4.45,0,0,0,2.989,7.214Z" transform="matrix(0.839, 0.545, -0.545, 0.839, -55.187, -255.698)" fill="#8b061b"/>
</svg>
