<svg xmlns="http://www.w3.org/2000/svg" width="182.588" height="182.588" viewBox="0 0 182.588 182.588">
  <path id="Path_1764" data-name="Path 1764" d="M424.436,239.12l-60.422,6.516a6.591,6.591,0,0,0-4.428,10.686L397.7,303.677l-47.355-38.112a6.592,6.592,0,0,0-10.686,4.428l-6.513,60.422-6.516-60.422a6.591,6.591,0,0,0-10.686-4.428l-47.355,38.109L306.7,256.322a6.591,6.591,0,0,0-4.428-10.686l-60.422-6.516,60.422-6.513A6.592,6.592,0,0,0,306.7,221.92l-38.109-47.355,47.353,38.112a6.592,6.592,0,0,0,10.686-4.428l6.516-60.422,6.513,60.422a6.592,6.592,0,0,0,10.686,4.428L397.7,174.568,359.586,221.92a6.592,6.592,0,0,0,4.428,10.686Z" transform="translate(-241.848 -147.827)" fill="#d0be93"/>
</svg>
